<svg width="27" height="27" viewBox="0 0 27 27" fill="none" xmlns="http://www.w3.org/2000/svg">
<path d="M25.8083 18.524C23.8683 19.6217 22.6522 20.0993 21.0569 20.3947C20.5681 20.4761 20.1285 20.5548 20.0875 20.557C20.0547 20.5587 20.0419 20.4697 20.0695 20.3674C20.1094 20.186 21.1776 17.4862 21.4941 16.7751L21.6184 16.4773L20.8814 15.5742C20.4778 15.0796 20.1427 14.6375 20.1404 14.5928C20.1375 14.5369 20.2428 14.5091 20.3664 14.5139C20.6052 14.5239 20.9355 14.2379 21.1998 13.7872C21.3662 13.5096 21.3492 13.4993 21.0213 13.6732C20.8614 13.7599 20.7145 13.7787 20.5629 13.7081C20.3441 13.6074 20.3342 13.5743 20.2896 12.7137C20.2439 11.8309 20.2439 11.8309 20.4693 11.7407C20.5987 11.7004 20.8048 11.7122 20.9312 11.7729C21.2589 11.9128 21.2829 11.9003 21.0887 11.6415C20.753 11.1882 20.4212 10.97 20.1279 11.0188L19.8341 11.0565L20.2137 10.4541C20.427 10.1293 20.7387 9.64255 20.9227 9.38651C21.2057 8.97966 21.2344 8.89973 21.1198 8.74879C21.049 8.6516 20.8952 8.37942 20.7836 8.12747C20.6643 7.88711 20.2626 7.1123 19.889 6.40327C19.5242 5.70499 19.2378 5.0923 19.2612 5.06867C19.3221 4.97588 21.1794 5.13748 21.8782 5.30301C22.7011 5.48453 24.2215 5.96612 24.6013 6.15937C25.1918 6.45377 24.9654 6.20776 24.2702 5.79551C22.5154 4.75457 20.566 4.08228 18.4138 3.77906C17.9087 3.70435 17.9133 3.79376 18.4401 4.7638C18.667 5.17787 18.8494 5.52701 18.8511 5.56054C18.8523 5.58289 19.0704 5.98621 19.3335 6.46564C20.0427 7.78482 20.4801 8.61381 20.5385 8.79008C20.587 8.93324 19.5645 10.611 19.3642 10.711C19.2044 10.7977 19.2772 10.4578 19.5662 9.69203L19.8629 8.91469L19.6168 8.44559C19.3086 7.89005 17.5854 4.92009 16.6943 3.41983C16.3434 2.83289 16.0528 2.29885 16.0505 2.25415C16.0482 2.20944 16.9064 2.1202 17.9554 2.06591C19.8812 1.96623 21.3071 2.04931 22.4554 2.32604C22.7966 2.40923 23.0869 2.46144 23.1016 2.42706C23.2158 2.25307 20.7836 1.46009 19.5328 1.2671C17.2724 0.93587 14.5171 0.887981 14.459 1.19354C14.4455 1.25027 14.8063 1.87032 15.2612 2.56393C15.7156 3.24637 16.3314 4.18939 16.6268 4.65595C16.9215 5.11133 17.2256 5.58864 17.2969 5.69701C17.3683 5.80537 17.5741 6.13089 17.7443 6.40222C17.915 6.68473 18.2367 7.18354 18.4595 7.51939C19.0297 8.37512 19.2647 8.78877 19.274 8.96758C19.2914 9.30286 18.9412 10.4752 18.8124 10.5267C18.6912 10.5665 18.6795 10.4999 18.7073 10.0839C18.7262 9.81395 18.7504 9.48774 18.7686 9.36353C18.7845 9.19462 18.5857 8.84633 18.0272 8.05723C16.5031 5.91739 15.7141 4.80404 14.8889 3.62533C14.4187 2.95492 13.7455 2.01487 13.3829 1.51818L12.7208 0.63358L12.1506 0.730326C10.2375 1.07587 7.20049 2.25278 5.76227 3.20126C4.83293 3.82085 3.55089 4.92934 3.19059 5.42983C3.09861 5.55785 3.61626 5.23971 4.06604 4.88026C4.44553 4.59168 5.73084 3.86402 6.34211 3.60827C7.97393 2.9075 10.4767 2.36335 11.7053 2.44543C12.3398 2.47983 12.4597 2.57447 13.6056 3.91587C14.0607 4.4526 14.6632 5.13858 14.951 5.45985C15.2306 5.78155 15.9547 6.5957 16.5578 7.29285C17.1603 7.97883 17.7973 8.69664 17.9804 8.90007C18.2857 9.24285 18.3045 9.2867 18.3397 9.96842C18.3669 10.4937 18.3516 10.6738 18.2614 10.6784C18.1959 10.6818 18.1134 10.518 18.0779 10.3069C17.988 9.84095 17.8927 9.74504 16.7015 8.79818C15.1504 7.5674 14.0792 6.71519 13.1624 5.98945C11.4914 4.66402 11.6436 4.74579 10.947 4.78184C10.6028 4.79966 10.1139 4.88099 9.87098 4.94959C6.69951 5.90935 5.06768 6.61012 3.18971 7.79427C2.06831 8.51345 0.375839 9.78885 0.446029 9.87486C0.47235 9.90711 0.809031 9.74401 1.19141 9.51132C2.53881 8.71321 5.26263 7.51889 6.60685 7.13556C8.04005 6.72521 9.66753 6.41686 10.7809 6.33682L11.371 6.30628L14.4506 8.17511C17.0468 9.7552 17.5582 10.1097 17.7049 10.4047C17.9423 10.863 17.9353 10.8858 17.6589 11.1018C17.3192 11.3659 17.2361 11.3478 16.5755 10.8105L15.9747 10.3149L15.2657 10.4301C14.8741 10.484 14.428 10.5967 14.267 10.6611C14.1142 10.725 13.565 10.9103 13.0556 11.0711C12.1499 11.3533 10.9045 11.8996 10.3084 12.2891C10.0302 12.4716 10.0232 12.4943 10.1413 12.7123C10.312 12.9948 10.341 13.5536 10.2009 13.8634C10.0977 14.0929 10.1153 14.1144 10.577 14.3034C12.0142 14.9238 14.3383 15.5318 15.5254 15.6049L16.1681 15.6388L16.7555 15.0818C17.4062 14.4766 17.487 14.45 17.844 14.6781C18.1494 14.8639 18.1628 14.9641 17.9565 15.423C17.8304 15.6873 17.137 16.261 14.9228 17.9332L12.052 20.0988L11.4614 20.1182C10.4686 20.1472 8.17411 19.9522 7.26048 19.7641C5.44962 19.3872 3.23508 18.6726 1.7124 17.9895C1.10673 17.7182 0.898952 17.673 1.04695 17.8334C1.13468 17.9409 2.25521 18.6337 2.86378 18.9608C3.07503 19.0731 3.43841 19.2672 3.66663 19.3899C4.15699 19.6558 5.83595 20.3421 6.43758 20.5351C8.51753 21.1894 9.26725 21.3859 10.0194 21.4703C10.2506 21.4919 10.5988 21.5523 10.8066 21.5976C11.0144 21.6429 11.4276 21.6887 11.7402 21.695C12.284 21.7228 12.308 21.7104 12.9435 21.1284C13.296 20.7964 13.8208 20.2986 14.1184 20.0143C14.4077 19.7304 14.8763 19.2579 15.1738 18.9736C18.0994 16.1216 18.2236 15.9807 18.3059 15.5058C18.4246 14.7825 18.5948 14.8969 18.6382 15.7351L18.6747 16.4392L17.8562 17.6133C17.3963 18.2534 16.8368 19.0332 16.6065 19.3476C15.8461 20.3731 15.1185 21.3968 14.4611 22.3497C13.4751 23.7791 13.5143 23.7434 12.9119 23.853C12.1872 23.9802 10.0805 23.9212 9.20081 23.7538C7.55675 23.4243 6.04102 22.8752 4.73788 22.147C3.99298 21.7262 3.95316 21.7506 4.5464 22.2578C4.81318 22.4905 5.05306 22.6798 5.06945 22.679C5.08584 22.6781 5.29004 22.8132 5.5118 22.9698C6.47604 23.6595 8.48561 24.5416 9.90897 24.8937C10.3415 24.9946 10.8495 25.1252 11.0327 25.1717C11.4991 25.2933 12.8407 25.4928 13.4845 25.5491L14.0213 25.5997L14.2691 25.1499C14.4127 24.9071 14.6617 24.4796 14.8358 24.1905C15.0098 23.9013 15.7482 22.6081 16.4777 21.3041C17.1991 20.0005 18.1103 18.3958 18.4865 17.7264C18.9835 16.849 19.1605 16.4588 19.1272 16.2925C18.9468 15.5062 18.919 15.1267 19.0337 15.1207C19.1648 15.1139 19.6529 16.2877 19.6708 16.6341C19.676 16.7347 19.3308 17.5258 18.8982 18.3774C17.7208 20.7131 16.7966 22.5426 16.1994 23.7053C15.9011 24.2922 15.6736 24.8195 15.6847 24.8749C15.7735 25.1617 18.4435 24.833 20.6413 24.271C21.9878 23.9324 24.2292 22.9423 24.08 22.7595C24.0625 22.738 23.8113 22.8071 23.5291 22.9113C22.5625 23.2863 21.0058 23.535 19.0718 23.6351C17.6786 23.7072 17.1605 23.7004 17.1553 23.5998C17.1518 23.5327 17.275 23.2126 17.4309 22.8908C17.7134 22.3159 18.4894 20.6397 18.8505 19.8366C18.946 19.6187 19.3077 18.8268 19.6471 18.0809C20.0375 17.2091 20.2386 16.6496 20.1995 16.5283C20.1697 16.429 20.0036 16.079 19.8306 15.7518C19.5213 15.1739 19.4126 14.821 19.5724 14.8911C19.7152 14.951 20.9734 16.3986 20.9792 16.5104C20.9849 16.6221 20.0428 19.0577 19.7685 19.6322C19.6718 19.8277 19.5991 20.0108 19.6014 20.0555C19.6031 20.089 19.4583 20.4663 19.2754 20.9016C18.8586 21.898 18.8562 22.0102 19.3099 21.8859C20.4281 21.5815 21.6155 21.1838 22.2332 20.8941C23.3803 20.3529 25.4169 19.0597 25.8129 18.6134C25.9599 18.4377 25.9599 18.4377 25.8083 18.524Z" fill="#BA3E7A"/>
</svg>
