<svg width="32" height="32" viewBox="0 0 32 32" fill="none" xmlns="http://www.w3.org/2000/svg">
<path d="M29.506 17.607C27.935 19.1883 26.8933 19.9768 25.4374 20.6926C24.9887 20.903 24.5867 21.0978 24.5479 21.1109C24.5168 21.1214 24.4804 21.0392 24.4793 20.9332C24.4687 20.7479 24.7672 17.8598 24.8796 17.0895L24.9188 16.7693L23.9651 16.099C23.4428 15.732 23.0006 15.397 22.9863 15.3545C22.9684 15.3015 23.0623 15.2462 23.1825 15.2174C23.4152 15.1626 23.6559 14.7979 23.7885 14.2925C23.8736 13.9803 23.8545 13.9749 23.5858 14.231C23.4554 14.3577 23.319 14.4155 23.154 14.3885C22.916 14.3507 22.8975 14.3215 22.622 13.5051C22.3393 12.6674 22.3393 12.6674 22.532 12.5197C22.6456 12.446 22.8472 12.4016 22.9853 12.4258C23.3386 12.4719 23.3584 12.4534 23.1014 12.2567C22.6557 11.9111 22.2773 11.7908 22.0081 11.917L21.7353 12.0327L21.938 11.3501C22.0556 10.9798 22.2241 10.4269 22.3319 10.1306C22.4944 9.66241 22.5004 9.57769 22.3493 9.46336C22.2549 9.38892 22.0332 9.16845 21.8576 8.95607C21.6778 8.75691 21.0816 8.11954 20.5302 7.53792C19.9902 6.96428 19.5488 6.45185 19.565 6.42277C19.5985 6.31695 21.4303 5.97042 22.1478 5.94086C22.9892 5.89314 24.5832 5.94573 25.0011 6.02911C25.6491 6.15292 25.3647 5.97727 24.584 5.76831C22.613 5.24057 20.5545 5.12035 18.4005 5.41028C17.894 5.47492 17.9226 5.55974 18.692 6.35123C19.0224 6.68855 19.2924 6.97537 19.3032 7.00718C19.3103 7.02838 19.6293 7.35772 20.0123 7.74817C21.0517 8.82647 21.6969 9.50636 21.8008 9.66027C21.8862 9.78499 21.3554 11.6767 21.1896 11.8271C21.0592 11.9538 21.0373 11.6069 21.1086 10.7915L21.1841 9.96289L20.8203 9.5778C20.3734 9.12626 17.9114 6.73278 16.6478 5.52933C16.1514 5.05909 15.7272 4.62351 15.7129 4.58109C15.6986 4.53868 16.5007 4.22074 17.4959 3.88487C19.3232 3.26822 20.7184 2.96271 21.8987 2.91869C22.2497 2.90653 22.5434 2.87831 22.5482 2.84125C22.6111 2.64285 20.0551 2.53698 18.7987 2.68933C16.5329 2.98157 13.8673 3.68036 13.8939 3.99026C13.8963 4.04853 14.4112 4.54795 15.0368 5.09272C15.6588 5.6269 16.5066 6.36831 16.917 6.73766C17.3239 7.0964 17.7457 7.47372 17.8437 7.55876C17.9417 7.6438 18.2279 7.90154 18.4651 8.11676C18.7059 8.34259 19.1504 8.73587 19.4557 8.99897C20.236 9.66868 20.5741 10.0034 20.6314 10.173C20.7387 10.4911 20.7185 11.7144 20.6084 11.7988C20.5026 11.87 20.4733 11.809 20.3876 11.401C20.3328 11.136 20.2679 10.8154 20.2518 10.6909C20.2215 10.5239 19.9359 10.2424 19.1849 9.63366C17.139 7.98556 16.0784 7.12698 14.9653 6.21527C14.3313 5.69694 13.4291 4.9739 12.9457 4.59374L12.0691 3.92108L11.5463 4.16838C9.79779 5.01829 7.1921 6.97244 6.06387 8.27444C5.33664 9.12221 4.40204 10.536 4.19047 11.1153C4.13652 11.2634 4.54889 10.8172 4.88473 10.3495C5.17207 9.96907 6.21279 8.92102 6.73215 8.50953C8.11374 7.39367 10.3762 6.19316 11.5812 5.94002C12.2014 5.80159 12.3424 5.86028 13.8083 6.84193C14.3916 7.23563 15.1571 7.73318 15.521 7.96468C15.8772 8.19881 16.7945 8.78685 17.5636 9.295C18.3291 9.79254 19.1364 10.3114 19.3677 10.4578C19.7544 10.7052 19.7842 10.7424 20.0025 11.3892C20.1707 11.8875 20.2046 12.065 20.1191 12.0939C20.0569 12.1149 19.9332 11.9795 19.8419 11.7859C19.6294 11.3615 19.5117 11.295 18.1089 10.7054C16.2828 9.93981 15.0211 9.40896 13.9422 8.95811C11.9751 8.1338 12.1437 8.17139 11.4828 8.39444C11.1562 8.50465 10.7076 8.7151 10.4922 8.84684C7.69835 10.6283 6.31676 11.7441 4.82887 13.3919C3.94366 14.3875 2.65903 16.073 2.74986 16.1368C2.78392 16.1607 3.06397 15.9127 3.3692 15.5853C4.45065 14.4526 6.75014 12.5664 7.94066 11.8339C9.20955 11.0513 10.6931 10.3145 11.7434 9.93639L12.3032 9.74746L15.7733 10.7141C18.7001 11.5334 19.2883 11.7365 19.5093 11.9808C19.8617 12.3579 19.8611 12.3817 19.6534 12.6644C19.3978 13.0106 19.3129 13.0156 18.5317 12.6769L17.8192 12.3622L17.1678 12.6647C16.8053 12.8225 16.4063 13.0516 16.2687 13.1571C16.1388 13.26 15.6602 13.5869 15.2133 13.8794C14.4176 14.396 13.3663 15.2586 12.8976 15.7947C12.6792 16.0456 12.6786 16.0695 12.8512 16.2474C13.092 16.4732 13.2709 17.0034 13.2198 17.3395C13.1825 17.5883 13.2052 17.6043 13.7008 17.6614C15.2523 17.8701 17.6542 17.8272 18.8168 17.5766L19.4447 17.4356L19.8597 16.7404C20.3226 15.9818 20.3932 15.9344 20.7985 16.0575C21.1428 16.1539 21.1828 16.2467 21.1082 16.7443C21.0583 17.0327 20.5458 17.7726 18.8661 19.9812L16.6878 22.8423L16.1244 23.0206C15.1764 23.3169 12.9146 23.7495 11.9842 23.8155C10.1389 23.9422 7.81359 23.8529 6.16292 23.6068C5.50647 23.5095 5.2942 23.5221 5.48005 23.6365C5.59359 23.7163 6.85969 24.0803 7.53402 24.2307C7.76777 24.2817 8.1701 24.3704 8.42298 24.4267C8.96699 24.5502 10.769 24.757 11.4004 24.7802C13.5798 24.8478 14.3547 24.8343 15.1016 24.7122C15.3301 24.6705 15.6817 24.6345 15.8939 24.6219C16.1062 24.6093 16.5165 24.5418 16.8191 24.4633C17.3502 24.3431 17.3699 24.3246 17.8244 23.5925C18.0741 23.1775 18.4447 22.5564 18.6543 22.2022C18.8561 21.8506 19.1795 21.2691 19.3891 20.9149C21.4347 17.3781 21.5162 17.2089 21.467 16.7295C21.3857 16.001 21.5806 16.0652 21.8489 16.8604L22.0744 17.5284L21.6038 18.8801C21.3341 19.6207 21.0062 20.5227 20.8696 20.8877C20.4147 22.0805 19.991 23.2629 19.6157 24.358C19.0528 26.0007 19.081 25.9558 18.5306 26.2242C17.8672 26.5425 15.8231 27.0553 14.9309 27.1319C13.259 27.2592 11.6512 27.1404 10.1998 26.7916C9.36881 26.5878 9.33709 26.6221 10.0454 26.95C10.3651 27.102 10.6472 27.2193 10.6628 27.2141C10.6783 27.2088 10.9115 27.2837 11.1673 27.3745C12.2821 27.7778 14.4553 28.0838 15.9209 28.038C16.3645 28.0182 16.8889 28.0065 17.0779 28.0018C17.5598 27.9927 18.9053 27.8221 19.5404 27.7023L20.0709 27.6059L20.1879 27.1058C20.2605 26.8333 20.3847 26.3544 20.4741 26.0289C20.5634 25.7035 20.9247 24.2588 21.2745 22.8061C21.6166 21.356 22.06 19.5647 22.2413 18.8185C22.4825 17.8395 22.5474 17.416 22.4704 17.2648C22.0842 16.5566 21.9547 16.1987 22.0636 16.162C22.188 16.12 22.9752 17.1181 23.0861 17.4468C23.1183 17.5422 22.9998 18.3972 22.8136 19.334C22.3115 21.901 21.9163 23.9123 21.6557 25.1932C21.5272 25.8389 21.4508 26.408 21.4764 26.4584C21.6394 26.7104 24.1212 25.6721 26.0852 24.5369C27.29 23.8468 29.1802 22.2877 28.9872 22.152C28.9645 22.1361 28.7413 22.2704 28.4978 22.4471C27.6686 23.0695 26.2371 23.7297 24.4021 24.349C23.0803 24.7951 22.5797 24.9286 22.5475 24.8331C22.5261 24.7695 22.5581 24.428 22.6211 24.076C22.7377 23.4461 23.0317 21.6226 23.1622 20.7518C23.1953 20.5162 23.3294 19.656 23.4544 18.8461C23.5946 17.9012 23.6369 17.3081 23.5665 17.202C23.511 17.1145 23.2565 16.8224 23.0014 16.5541C22.5474 16.0814 22.3474 15.771 22.5201 15.7953C22.6738 15.8143 24.2765 16.8679 24.3123 16.9739C24.3481 17.08 24.0995 19.6796 23.9907 20.3068C23.9505 20.5212 23.93 20.7171 23.9443 20.7595C23.955 20.7913 23.9176 21.1937 23.8592 21.6622C23.7273 22.7342 23.7553 22.8429 24.1585 22.6005C25.1528 22.0051 26.1884 21.3013 26.7048 20.8554C27.6628 20.0242 29.274 18.2285 29.5346 17.6918C29.6287 17.4829 29.6287 17.4829 29.506 17.607Z" fill="#37F5F5"/>
</svg>
