<svg width="33" height="33" viewBox="0 0 33 33" fill="none" xmlns="http://www.w3.org/2000/svg">
<path d="M3.55078 10.6085C3.43516 10.8477 3.60054 11.1604 3.50259 11.3933C3.43552 11.5527 3.45038 11.7723 3.41454 11.9504C3.36417 12.2007 3.38865 12.4767 3.39563 12.7276C3.42733 13.8659 3.25327 15.0467 3.30174 16.1921C3.31306 16.4595 3.22566 16.711 3.27051 16.9842C3.31056 17.2282 3.27992 17.5044 3.28599 17.7505C3.29268 18.0221 3.25095 18.332 3.22754 18.6062C3.20713 18.8451 3.1335 19.1867 3.16857 19.4132C3.23375 19.8342 3.18751 20.3236 3.18503 20.7566C3.18378 20.9741 3.09956 21.1008 3.16539 21.3273C3.19199 21.4187 3.17649 21.6259 3.12684 21.7058" stroke="#FEFEFE" stroke-width="0.4" stroke-linecap="round"/>
<path d="M3.28745 15.6616C3.46092 15.6744 3.91045 15.3712 4.06743 15.2864C4.26757 15.1784 4.4586 15.1029 4.66492 15.0072C5.08739 14.8112 5.66715 14.6083 6.12736 14.6116C6.55152 14.6146 7.01252 14.5215 7.44035 14.5901C8.0132 14.6819 8.54771 14.825 9.10055 14.9839C10.0345 15.2523 10.9294 15.9064 11.701 16.4803C11.9934 16.6978 12.2391 16.9338 12.5521 17.1282C12.6048 17.161 12.7751 17.2882 12.7908 17.3473C12.8157 17.4416 12.7962 17.5117 12.8871 17.5682" stroke="#FEFEFE" stroke-width="0.4" stroke-linecap="round"/>
<path d="M12.9948 17.7511C13.2962 17.337 13.7674 17.1462 14.0908 16.7832C14.3193 16.5266 14.7221 16.2929 15.0493 16.2195C15.2687 16.1703 15.4753 16.0339 15.6994 15.9793C15.9509 15.918 16.2535 15.9448 16.4952 15.8555C16.716 15.7739 16.9382 15.8122 17.1622 15.7611C17.3736 15.7128 17.6531 15.6394 17.864 15.6303C18.3054 15.6114 18.7484 15.5581 19.1785 15.5421C19.7432 15.5212 20.3018 15.7064 20.8641 15.7714C21.6053 15.8572 22.2322 16.1866 22.8524 16.5719" stroke="#FEFEFE" stroke-width="0.4" stroke-linecap="round"/>
<path d="M22.8521 16.5717C22.935 16.4382 23.0234 16.211 23.1467 16.1172C23.2589 16.0318 23.422 15.9117 23.4972 15.8003C23.6564 15.5646 23.9514 15.4253 24.0927 15.1978" stroke="#FEFEFE" stroke-width="0.4" stroke-linecap="round"/>
<path d="M13.6456 19.3727C13.8495 19.0443 14.4388 19.0152 14.7524 18.9461C15.1882 18.8501 15.5903 18.8278 16.0212 18.704C16.4935 18.5682 16.9961 18.3832 17.4808 18.3227C17.7682 18.2869 18.035 18.1488 18.3233 18.1635C18.6397 18.1795 18.9618 18.1579 19.2792 18.1777C19.4274 18.1869 19.5762 18.21 19.7245 18.2225C19.864 18.2343 20.0391 18.191 20.1679 18.221C20.3826 18.2711 20.603 18.2609 20.7963 18.3667C20.9305 18.4402 21.232 18.3806 21.3911 18.3885C21.6306 18.4003 21.8671 18.4525 22.0998 18.4939C22.9062 18.6373 23.7656 18.8203 24.4923 19.2718" stroke="#FEFEFE" stroke-width="0.4" stroke-linecap="round"/>
<path d="M13.4881 19.4486C13.1659 19.2484 12.8437 19.0483 12.5216 18.8481C12.1815 18.6369 11.8212 18.5147 11.4809 18.3175C11.0517 18.0688 10.3426 18.0278 9.86062 17.9485C9.53048 17.8941 9.21773 17.8279 8.8971 17.7685C8.6737 17.7271 8.40929 17.7452 8.20243 17.675C8.0374 17.619 7.75345 17.5929 7.58215 17.6052C7.35894 17.6213 7.16166 17.5402 6.943 17.5559C6.44015 17.5921 5.90587 17.3418 5.41132 17.4448C5.22269 17.4841 4.92777 17.3932 4.72815 17.3971C4.50346 17.4015 4.14516 17.4119 3.93883 17.5154C3.66027 17.655 3.26557 17.639 3.00599 17.8053" stroke="#FEFEFE" stroke-width="0.4" stroke-linecap="round"/>
<path d="M3.48338 11.784C3.67078 11.5737 4.05449 11.5403 4.28986 11.4156C4.58102 11.2615 4.9117 11.1623 5.22285 11.0711C5.48523 10.9942 5.74524 10.9215 6.00727 10.8371C6.07962 10.8138 6.26512 10.7944 6.34587 10.7866C6.48259 10.7736 6.6021 10.7672 6.73947 10.7317C6.9839 10.6685 7.23654 10.744 7.49147 10.6933C7.71844 10.6482 7.98999 10.6844 8.22382 10.6717C8.41394 10.6615 8.63775 10.75 8.82122 10.7981C9.00583 10.8466 9.12459 10.8836 9.28859 10.9855" stroke="#FEFEFE" stroke-width="0.4" stroke-linecap="round"/>
<path d="M11.4098 11.6659C11.5756 11.5243 11.9208 11.42 12.1271 11.3323C12.3416 11.2411 12.5576 11.1635 12.7719 11.0759C13.1613 10.9166 13.5013 10.7896 13.9236 10.7352C14.3139 10.685 14.6929 10.7627 15.0796 10.7836C15.3118 10.7961 15.7437 10.8815 15.962 10.7973C16.1594 10.7212 16.3792 10.7984 16.5811 10.7504C16.8225 10.693 17.1786 10.7168 17.4281 10.7421C17.9046 10.7904 18.5255 10.6961 18.9336 10.9496" stroke="#FEFEFE" stroke-width="0.4" stroke-linecap="round"/>
<path d="M11.3027 11.4833C11.429 11.4765 11.7822 11.1893 11.8999 11.1008C12.0428 10.9932 12.1917 10.8604 12.3331 10.7645C12.5467 10.6196 12.8344 10.4552 13.085 10.3751C13.4356 10.2631 13.7928 10.1425 14.1351 10.0003C14.4244 9.88014 14.7787 9.89756 15.0567 9.75818C15.5982 9.48675 16.2728 9.4376 16.8601 9.39731C17.1083 9.38029 17.3787 9.38847 17.6246 9.42788C17.7259 9.44411 17.8068 9.38 17.9165 9.40313C17.9962 9.41994 18.0992 9.47067 18.1649 9.42863" stroke="#FEFEFE" stroke-width="0.4" stroke-linecap="round"/>
<path d="M11.2411 11.8504C10.2959 11.4219 9.47688 10.6447 8.51803 10.2198C8.07554 10.0238 7.56848 10.0269 7.10827 9.90754C6.72242 9.80743 6.27824 9.71614 5.87617 9.73458C5.60436 9.74704 5.37604 9.80535 5.11422 9.87303C4.94063 9.91791 4.78861 9.88515 4.64149 10.0108" stroke="#FEFEFE" stroke-width="0.4" stroke-linecap="round"/>
<path d="M25.0642 20.8441C24.726 20.9315 24.4313 20.9739 24.0825 21.0199C23.7884 21.0586 23.4687 21.187 23.177 21.1915C22.7898 21.1976 22.3871 21.2016 21.9988 21.2581C21.3284 21.3557 20.6431 21.3081 19.9786 21.4586C19.4324 21.5823 18.853 21.7252 18.3518 22C18.0526 22.1641 17.7686 22.3744 17.467 22.5291C17.0099 22.7635 16.6465 23.2074 16.1954 23.4682C15.9441 23.6135 15.7136 23.802 15.5185 24.0138" stroke="#FEFEFE" stroke-width="0.4" stroke-linecap="round"/>
<path d="M27.3313 24.0496C26.0185 23.3847 24.313 23.8157 22.9466 24.1689C22.362 24.32 21.8049 24.5886 21.224 24.7507C20.9406 24.8298 20.5716 25.127 20.2863 25.0633" stroke="#FEFEFE" stroke-width="0.4" stroke-linecap="round"/>
<path d="M28.4197 25.7692C28.2102 25.9565 27.8985 26.0264 27.6359 26.0615C27.4757 26.0829 27.3449 26.175 27.1927 26.2112C26.8223 26.2992 26.4086 26.2954 26.034 26.3157" stroke="#FEFEFE" stroke-width="0.4" stroke-linecap="round"/>
<path d="M29.0009 25.7241C29.1957 25.3399 29.3263 24.8802 29.4339 24.4732C29.4834 24.286 29.4545 24.1038 29.5632 23.9288C29.6411 23.8034 29.6395 23.6629 29.5854 23.5369" stroke="#FEFEFE" stroke-width="0.4" stroke-linecap="round"/>
<path d="M27.6605 23.9642C27.9048 23.5711 27.9038 23.0841 28.1226 22.6863C28.2199 22.5095 28.1864 22.3167 28.3017 22.131C28.3558 22.044 28.4397 21.7694 28.311 21.76" stroke="#FEFEFE" stroke-width="0.4" stroke-linecap="round"/>
<path d="M24.3584 19.1309C24.5133 18.9275 24.6855 18.7824 24.8279 18.5531C24.9474 18.3608 25.1004 18.2036 25.22 18.011C25.3514 17.7995 25.5026 17.6452 25.6352 17.4317" stroke="#FEFEFE" stroke-width="0.4" stroke-linecap="round"/>
<path d="M20.9713 13.7226C21.2245 13.5604 21.7038 13.6333 21.9988 13.5623C22.1389 13.5286 22.2802 13.5167 22.4149 13.486C22.5839 13.4474 22.7145 13.4367 22.8699 13.3371" stroke="#FEFEFE" stroke-width="0.4" stroke-linecap="round"/>
<path d="M19.1309 10.9488C19.2825 10.7289 19.5153 10.6202 19.6562 10.3934C19.7503 10.2419 19.8444 10.0904 19.9385 9.93897C20.0828 9.70672 20.2666 9.50769 20.4054 9.28426" stroke="#FEFEFE" stroke-width="0.4" stroke-linecap="round"/>
<path d="M18.5653 9.14931C18.7133 8.98866 19.1109 8.90762 19.3163 8.81108C19.4897 8.72957 19.5678 8.69641 19.6785 8.51825" stroke="#FEFEFE" stroke-width="0.4" stroke-linecap="round"/>
<path d="M17.0979 7.54484C16.7822 7.56754 16.4131 7.37132 16.1056 7.30972C15.6393 7.21629 15.0892 7.17942 14.6119 7.18301C14.2906 7.18542 13.943 7.19408 13.6354 7.31464C13.2785 7.45451 12.8694 7.44353 12.5315 7.61907C12.271 7.75439 12.0171 7.87604 11.7726 8.03987C11.579 8.16962 11.307 8.21698 11.1293 8.37147C11.0446 8.44503 10.9618 8.45346 10.8643 8.50778C10.7393 8.57744 10.6978 8.71478 10.5833 8.78809C10.5017 8.84041 10.301 8.98849 10.2357 8.95001C9.94817 8.78074 9.75264 8.52394 9.47317 8.35032C9.23234 8.2007 8.99304 8.04823 8.75053 7.90137C8.37293 7.6727 7.91826 7.54839 7.48638 7.4589C7.17014 7.39337 6.86018 7.2716 6.52326 7.27343C6.12971 7.27558 5.73459 7.27894 5.34891 7.25065C5.20946 7.24043 5.05016 7.23025 4.90777 7.24602C4.71913 7.2669 4.55963 7.39166 4.37498 7.32441" stroke="#FEFEFE" stroke-width="0.4" stroke-linecap="round"/>
<path d="M15.8813 5.1514C15.2266 4.74464 14.7254 4.52893 13.9548 4.45842C13.6797 4.43325 13.334 4.47519 13.0573 4.51666C12.8148 4.55301 12.5314 4.67458 12.2973 4.68133C12.0722 4.68782 11.87 4.81585 11.655 4.88763C11.1179 5.06702 10.6239 5.33761 10.1404 5.64367C9.8915 5.80121 9.64614 6.06442 9.39984 5.91139C9.29365 5.84542 9.17157 5.65713 9.0802 5.55535C8.95196 5.41251 8.75913 5.32439 8.5981 5.22435C8.11847 4.92637 7.55554 4.96863 7.01504 4.87068C6.39461 4.75824 5.79395 5.26105 5.19917 5.12816" stroke="#FEFEFE" stroke-width="0.4" stroke-linecap="round"/>
<path d="M13.7176 1.47668C13.26 1.4215 12.7989 1.26807 12.3255 1.30462C12.0514 1.32578 11.7763 1.28678 11.5043 1.26683C11.0753 1.23537 10.7439 1.31294 10.3271 1.4207C9.9747 1.51178 9.58212 1.55882 9.26317 1.73598C9.10041 1.82638 8.83958 2.09915 8.65482 1.98436C8.46976 1.86939 8.31937 1.71298 8.12903 1.59473C7.87933 1.4396 7.48629 1.44464 7.19398 1.4232C6.79657 1.39405 6.40296 1.33195 6.00753 1.31243C5.8115 1.30275 5.57624 1.39885 5.38887 1.34096" stroke="#FEFEFE" stroke-width="0.4" stroke-linecap="round"/>
<path d="M12.7212 -0.402136C12.3124 -0.656104 11.8806 -0.951175 11.3801 -0.951876C10.9425 -0.952489 10.4932 -0.963897 10.0602 -0.858625C9.51563 -0.726239 9.04441 -0.34598 8.49899 -0.204988C8.1985 -0.12731 7.61138 -0.68966 7.34681 -0.843821C6.94032 -1.08068 6.28282 -0.993128 5.83736 -1.0258" stroke="#FEFEFE" stroke-width="0.4" stroke-linecap="round"/>
<path d="M7.20996 -11.0692C7.30232 -10.9957 7.43082 -10.5554 7.42732 -10.4303C7.41818 -10.1045 7.52975 -9.76733 7.5369 -9.42442C7.55228 -8.68629 7.78136 -7.9682 7.79942 -7.23537C7.81805 -6.47967 8.12597 -5.71264 8.09175 -4.94382C8.07709 -4.61436 8.16106 -4.28422 8.16845 -3.95493C8.17617 -3.61109 8.19375 -3.24324 8.25691 -2.90973C8.2873 -2.74927 8.24007 -2.56904 8.27171 -2.41767C8.30251 -2.27027 8.36219 -2.12513 8.3945 -1.97048C8.44482 -1.72969 8.46222 -1.45316 8.54912 -1.2306C8.66482 -0.934281 8.75667 -0.572249 8.85779 -0.25504C8.9578 0.0586917 9.0616 0.414796 9.09571 0.743043C9.16832 1.44183 9.20987 2.13185 9.35638 2.83297C9.44109 3.23833 9.47106 3.64251 9.55425 4.04061C9.64359 4.46814 9.77149 4.90139 9.91631 5.31176C10.0492 5.68835 10.0831 6.08993 10.1648 6.48088C10.2586 6.92988 10.3855 7.34675 10.4302 7.81094C10.5176 8.71802 10.7073 9.60626 10.7859 10.5163C10.8214 10.9268 10.9301 11.3509 11.0763 11.7254C11.1514 11.9176 11.2372 12.1048 11.2859 12.307C11.3364 12.5166 11.5082 12.6872 11.5754 12.8997C11.7196 13.3562 12.0113 13.7561 12.135 14.2236C12.2321 14.5908 12.3449 14.985 12.4667 15.3395C12.5062 15.4545 12.4467 15.8114 12.4589 16.0344C12.4759 16.3449 12.498 16.7595 12.6307 17.0369C12.8048 17.4008 12.9105 17.7708 13.0168 18.1726C13.1156 18.546 13.1438 19.0566 13.3383 19.38C13.5256 19.6916 13.611 20.1652 13.6799 20.523C13.737 20.82 13.8792 21.0643 13.967 21.3452C14.0879 21.7322 14.2997 22.1642 14.4741 22.528C14.683 22.9639 14.8129 23.4423 15.0395 23.8695C15.1382 24.0557 15.1151 24.2911 15.2396 24.4662" stroke="#FEFEFE" stroke-width="0.4" stroke-linecap="round"/>
<path d="M9.38232 -7.89288C9.46569 -7.80093 9.47847 -7.63869 9.52024 -7.52377C9.62281 -7.24165 9.73388 -6.98054 9.8083 -6.68699C9.93896 -6.17156 10.2708 -5.73426 10.395 -5.21326C10.559 -4.52548 10.9145 -3.947 11.1715 -3.30328C11.5883 -2.25898 12.0285 -1.11957 12.6656 -0.205601C12.8359 0.0386425 12.9762 0.29425 13.1108 0.560879C13.2373 0.811196 13.4244 1.00093 13.5687 1.23722C13.9172 1.80799 14.3046 2.34693 14.7511 2.84306C15.3292 3.48554 15.7825 4.20456 16.3114 4.88313C16.6517 5.31976 17.0366 5.7982 17.2637 6.31108C17.3957 6.60907 17.5938 6.89531 17.7397 7.19464C17.8931 7.50924 18.0227 7.8769 18.1421 8.20742C18.3533 8.79214 18.6119 9.32224 18.8873 9.87755C19.6069 11.3287 20.0687 12.9349 20.9475 14.3102C21.2984 14.8593 21.6812 15.3815 22.0288 15.9337C22.3953 16.5159 22.8295 17.0024 23.2447 17.5393C23.5406 17.922 23.8587 18.2846 24.1366 18.6778C24.2666 18.8618 24.4436 19.0301 24.5967 19.1946C24.7569 19.3667 24.8497 19.581 24.9999 19.76C25.9728 20.9189 26.6352 22.2634 27.3427 23.6089C27.4949 23.8982 27.7036 24.1522 27.8636 24.4363C28.0381 24.7463 28.3268 25.1303 28.5763 25.3795C28.8173 25.6202 29.1873 26.0363 29.2577 26.3731" stroke="#FEFEFE" stroke-width="0.4" stroke-linecap="round"/>
</svg>
