<svg width="32" height="32" viewBox="0 0 32 32" fill="none" xmlns="http://www.w3.org/2000/svg">
<path d="M29.506 17.6068C27.935 19.1882 26.8933 19.9767 25.4374 20.6925C24.9887 20.9029 24.5867 21.0976 24.5479 21.1108C24.5168 21.1213 24.4804 21.0391 24.4793 20.9331C24.4687 20.7477 24.7672 17.8597 24.8796 17.0894L24.9188 16.7691L23.9651 16.0989C23.4428 15.7318 23.0006 15.3968 22.9863 15.3544C22.9684 15.3014 23.0623 15.2461 23.1825 15.2173C23.4152 15.1624 23.6559 14.7978 23.7885 14.2924C23.8736 13.9802 23.8545 13.9748 23.5858 14.2309C23.4554 14.3576 23.319 14.4154 23.154 14.3884C22.916 14.3506 22.8975 14.3214 22.622 13.505C22.3393 12.6673 22.3393 12.6673 22.532 12.5196C22.6456 12.4458 22.8472 12.4014 22.9853 12.4257C23.3386 12.4718 23.3584 12.4533 23.1014 12.2566C22.6557 11.911 22.2773 11.7906 22.0081 11.9169L21.7353 12.0326L21.938 11.35C22.0556 10.9797 22.2241 10.4267 22.3319 10.1305C22.4944 9.66229 22.5004 9.57757 22.3493 9.46324C22.2549 9.3888 22.0332 9.16833 21.8576 8.95595C21.6778 8.75679 21.0816 8.11942 20.5302 7.5378C19.9902 6.96416 19.5488 6.45173 19.565 6.42265C19.5985 6.31683 21.4303 5.9703 22.1478 5.94074C22.9892 5.89302 24.5832 5.94561 25.0011 6.02899C25.6491 6.15279 25.3647 5.97715 24.584 5.76819C22.613 5.24045 20.5545 5.12023 18.4005 5.41016C17.894 5.47479 17.9226 5.55962 18.692 6.35111C19.0224 6.68842 19.2924 6.97525 19.3032 7.00706C19.3103 7.02826 19.6293 7.3576 20.0123 7.74804C21.0517 8.82635 21.6969 9.50624 21.8008 9.66015C21.8862 9.78487 21.3554 11.6766 21.1896 11.827C21.0592 11.9537 21.0373 11.6067 21.1086 10.7914L21.1841 9.96277L20.8203 9.57768C20.3734 9.12613 17.9114 6.73266 16.6478 5.5292C16.1514 5.05897 15.7272 4.62338 15.7129 4.58097C15.6986 4.53856 16.5007 4.22062 17.4959 3.88475C19.3232 3.2681 20.7184 2.96259 21.8987 2.91857C22.2497 2.90641 22.5434 2.87819 22.5482 2.84113C22.6111 2.64272 20.0551 2.53686 18.7987 2.68921C16.5329 2.98144 13.8673 3.68024 13.8939 3.99014C13.8963 4.04841 14.4112 4.54782 15.0368 5.0926C15.6588 5.62678 16.5066 6.36819 16.917 6.73754C17.3239 7.09628 17.7457 7.4736 17.8437 7.55864C17.9417 7.64368 18.2279 7.90142 18.4651 8.11664C18.7059 8.34247 19.1504 8.73575 19.4557 8.99884C20.236 9.66856 20.5741 10.0033 20.6314 10.1729C20.7387 10.491 20.7185 11.7143 20.6084 11.7987C20.5025 11.8699 20.4733 11.8089 20.3876 11.4008C20.3328 11.1359 20.2679 10.8153 20.2519 10.6907C20.2215 10.5238 19.9359 10.2423 19.1849 9.63353C17.139 7.98544 16.0784 7.12685 14.9653 6.21514C14.3313 5.69682 13.4291 4.97377 12.9457 4.59361L12.0691 3.92096L11.5463 4.16826C9.79779 5.01817 7.1921 6.97232 6.06387 8.27431C5.33664 9.12209 4.40204 10.5359 4.19047 11.1152C4.13652 11.2633 4.54889 10.817 4.88473 10.3494C5.17207 9.96895 6.21279 8.92089 6.73215 8.5094C8.11374 7.39355 10.3762 6.19303 11.5812 5.9399C12.2014 5.80146 12.3424 5.86016 13.8083 6.8418C14.3916 7.23551 15.1571 7.73306 15.521 7.96456C15.8772 8.19868 16.7945 8.78673 17.5636 9.29488C18.3291 9.79242 19.1364 10.3113 19.3677 10.4576C19.7544 10.7051 19.7842 10.7423 20.0025 11.3891C20.1707 11.8874 20.2046 12.0649 20.1191 12.0938C20.0569 12.1148 19.9332 11.9793 19.8419 11.7858C19.6294 11.3614 19.5117 11.2949 18.1089 10.7053C16.2828 9.93969 15.0211 9.40884 13.9422 8.95799C11.9751 8.13368 12.1437 8.17127 11.4828 8.39431C11.1562 8.50452 10.7076 8.71498 10.4922 8.84672C7.69835 10.6282 6.31676 11.744 4.82887 13.3918C3.94366 14.3874 2.65903 16.0728 2.74986 16.1367C2.78392 16.1606 3.06397 15.9126 3.3692 15.5851C4.45065 14.4525 6.75014 12.5662 7.94066 11.8338C9.20955 11.0512 10.6931 10.3143 11.7434 9.93627L12.3032 9.74734L15.7733 10.714C18.7001 11.5333 19.2883 11.7364 19.5093 11.9807C19.8617 12.3578 19.8611 12.3816 19.6534 12.6643C19.3978 13.0104 19.3129 13.0155 18.5317 12.6768L17.8192 12.3621L17.1678 12.6646C16.8053 12.8224 16.4063 13.0515 16.2687 13.157C16.1388 13.2599 15.6602 13.5868 15.2133 13.8793C14.4176 14.3959 13.3663 15.2585 12.8976 15.7946C12.6792 16.0455 12.6786 16.0693 12.8512 16.2473C13.092 16.4731 13.2709 17.0033 13.2198 17.3394C13.1825 17.5882 13.2052 17.6042 13.7008 17.6613C15.2523 17.87 17.6542 17.8271 18.8168 17.5765L19.4447 17.4354L19.8597 16.7403C20.3226 15.9817 20.3932 15.9343 20.7985 16.0573C21.1428 16.1537 21.1828 16.2465 21.1082 16.7441C21.0583 17.0326 20.5458 17.7725 18.8661 19.981L16.6878 22.8421L16.1244 23.0205C15.1764 23.3168 12.9146 23.7494 11.9842 23.8153C10.1389 23.942 7.81359 23.8528 6.16292 23.6067C5.50647 23.5094 5.2942 23.5219 5.48005 23.6364C5.59359 23.7162 6.85969 24.0802 7.53402 24.2306C7.76777 24.2816 8.1701 24.3702 8.42298 24.4266C8.96699 24.5501 10.769 24.7569 11.4004 24.7801C13.5798 24.8477 14.3547 24.8342 15.1016 24.712C15.3301 24.6704 15.6817 24.6344 15.8939 24.6218C16.1062 24.6092 16.5165 24.5416 16.8191 24.4631C17.3502 24.343 17.3699 24.3245 17.8244 23.5924C18.0741 23.1774 18.4447 22.5563 18.6543 22.2021C18.8561 21.8505 19.1795 21.269 19.3891 20.9148C21.4347 17.378 21.5162 17.2088 21.467 16.7294C21.3857 16.0009 21.5806 16.065 21.8489 16.8603L22.0744 17.5283L21.6038 18.88C21.3341 19.6206 21.0062 20.5226 20.8696 20.8876C20.4147 22.0804 19.991 23.2628 19.6157 24.3579C19.0528 26.0006 19.081 25.9557 18.5306 26.2241C17.8672 26.5424 15.8231 27.0551 14.9309 27.1318C13.259 27.2591 11.6512 27.1402 10.1998 26.7915C9.36881 26.5877 9.33709 26.622 10.0454 26.9499C10.3651 27.1018 10.6472 27.2192 10.6628 27.214C10.6783 27.2087 10.9115 27.2836 11.1673 27.3744C12.2821 27.7777 14.4553 28.0836 15.9209 28.0378C16.3645 28.018 16.8889 28.0064 17.0779 28.0017C17.5598 27.9926 18.9053 27.822 19.5404 27.7021L20.0709 27.6058L20.1879 27.1057C20.2605 26.8332 20.3847 26.3542 20.4741 26.0288C20.5634 25.7034 20.9247 24.2587 21.2745 22.806C21.6166 21.3559 22.06 19.5646 22.2413 18.8184C22.4825 17.8394 22.5474 17.4159 22.4704 17.2647C22.0842 16.5565 21.9547 16.1986 22.0636 16.1619C22.188 16.1199 22.9752 17.118 23.0861 17.4467C23.1183 17.5421 22.9998 18.397 22.8136 19.3339C22.3115 21.9009 21.9163 23.9122 21.6557 25.193C21.5272 25.8388 21.4508 26.4078 21.4764 26.4582C21.6394 26.7103 24.1212 25.672 26.0852 24.5368C27.29 23.8467 29.1802 22.2875 28.9872 22.1519C28.9645 22.1359 28.7413 22.2703 28.4978 22.447C27.6686 23.0693 26.2371 23.7296 24.4021 24.3488C23.0803 24.7949 22.5797 24.9284 22.5475 24.833C22.5261 24.7694 22.5581 24.4279 22.6211 24.0759C22.7377 23.446 23.0317 21.6224 23.1622 20.7516C23.1953 20.5161 23.3294 19.6559 23.4544 18.846C23.5946 17.9011 23.6369 17.308 23.5665 17.2019C23.511 17.1143 23.2565 16.8223 23.0014 16.554C22.5474 16.0813 22.3474 15.7708 22.5201 15.7952C22.6738 15.8142 24.2765 16.8678 24.3123 16.9738C24.3481 17.0798 24.0995 19.6794 23.9907 20.3067C23.9505 20.521 23.93 20.7169 23.9443 20.7594C23.955 20.7912 23.9176 21.1935 23.8592 21.6621C23.7273 22.7341 23.7553 22.8428 24.1585 22.6004C25.1528 22.005 26.1884 21.3012 26.7048 20.8553C27.6628 20.0241 29.274 18.2284 29.5346 17.6917C29.6287 17.4828 29.6287 17.4828 29.506 17.6068Z" fill="#D1110C"/>
</svg>
