<svg width="27" height="22" viewBox="0 0 27 22" fill="none" xmlns="http://www.w3.org/2000/svg">
<path d="M6.6709 13.6206C6.68904 13.7839 6.88692 13.8941 6.91262 14.0483C6.93021 14.1538 7.01345 14.2642 7.0546 14.3694C7.11245 14.5173 7.22023 14.6541 7.30984 14.7836C7.71634 15.3707 8.02419 16.0473 8.44236 16.6328C8.54 16.7695 8.57785 16.9299 8.69591 17.0587C8.80135 17.1738 8.87889 17.3287 8.96637 17.456C9.06289 17.5964 9.14585 17.7726 9.22668 17.9242C9.29711 18.0563 9.37337 18.2596 9.47009 18.3671C9.64983 18.5668 9.79168 18.8388 9.93831 19.0668C10.0119 19.1814 10.0089 19.2754 10.1226 19.3728C10.1685 19.4121 10.2307 19.5259 10.2307 19.5841" stroke="#FEFEFE" stroke-width="0.4" stroke-linecap="round"/>
<path d="M8.25293 16.3591C8.35272 16.3092 8.49641 16.0034 8.55381 15.9077C8.62699 15.7858 8.70628 15.6838 8.78707 15.5663C8.95252 15.3256 9.20213 15.0301 9.45644 14.8817C9.69085 14.745 9.91264 14.5458 10.1715 14.4422C10.518 14.3036 10.861 14.2044 11.2195 14.1075C11.8251 13.9439 12.541 13.9953 13.1616 14.045C13.3968 14.0638 13.6127 14.1075 13.8513 14.1075C13.8916 14.1075 14.0287 14.1188 14.0575 14.1447C14.1035 14.1861 14.1167 14.2292 14.186 14.2292" stroke="#FEFEFE" stroke-width="0.4" stroke-linecap="round"/>
<path d="M14.3081 14.29C14.3324 13.9743 14.5264 13.7205 14.5802 13.4245C14.6183 13.2153 14.76 12.9612 14.9149 12.816C15.0188 12.7186 15.0858 12.5797 15.1905 12.4779C15.3079 12.3637 15.4835 12.2791 15.586 12.1534C15.6796 12.0385 15.8149 11.9862 15.9207 11.8863C16.0205 11.7921 16.1492 11.6624 16.2621 11.5888C16.4985 11.4349 16.724 11.2625 16.9552 11.1138C17.2587 10.9187 17.6293 10.8337 17.9609 10.6845C18.398 10.4878 18.8555 10.4563 19.3284 10.4563" stroke="#FEFEFE" stroke-width="0.4" stroke-linecap="round"/>
<path d="M19.328 10.4564C19.328 10.3594 19.299 10.2112 19.3348 10.1218C19.3673 10.0404 19.416 9.92416 19.4193 9.84117C19.4263 9.66552 19.541 9.4962 19.541 9.33069" stroke="#FEFEFE" stroke-width="0.4" stroke-linecap="round"/>
<path d="M15.2207 14.929C15.2207 14.6901 15.535 14.4827 15.6839 14.3442C15.8908 14.1516 16.1044 14.0088 16.2991 13.8032C16.5126 13.5779 16.7259 13.3169 16.9719 13.1271C17.1177 13.0146 17.2173 12.8551 17.3809 12.7688C17.5605 12.674 17.7304 12.5576 17.9117 12.4645C17.9964 12.421 18.0862 12.3846 18.172 12.3428C18.2528 12.3035 18.3343 12.2237 18.4154 12.1974C18.5507 12.1537 18.6685 12.0765 18.811 12.069C18.9099 12.0638 19.0555 11.9342 19.1456 11.8864C19.2815 11.8145 19.4294 11.7648 19.5716 11.7106C20.0643 11.5229 20.5996 11.3387 21.1538 11.3387" stroke="#FEFEFE" stroke-width="0.4" stroke-linecap="round"/>
<path d="M15.1597 15.0203C14.914 15.0203 14.6683 15.0203 14.4227 15.0203C14.1634 15.0203 13.9234 15.0736 13.6688 15.0811C13.3476 15.0906 12.9435 15.3002 12.6512 15.4158C12.451 15.4949 12.2563 15.5621 12.0596 15.6355C11.9225 15.6867 11.7832 15.7824 11.6455 15.813C11.5355 15.8375 11.3704 15.9164 11.2803 15.9787C11.163 16.0599 11.0268 16.0817 10.9119 16.1612C10.6476 16.3442 10.2681 16.3871 10.0312 16.6024C9.94084 16.6846 9.74752 16.733 9.63903 16.8002C9.51692 16.8758 9.32335 16.9981 9.24519 17.1197C9.13966 17.2838 8.91703 17.4041 8.83105 17.576" stroke="#FEFEFE" stroke-width="0.4" stroke-linecap="round"/>
<path d="M7.03564 14.2595C7.06684 14.088 7.26653 13.9453 7.35343 13.8031C7.46091 13.6272 7.60895 13.4673 7.74896 13.318C7.86703 13.1921 7.98523 13.0691 8.10055 12.9394C8.13239 12.9035 8.2278 12.8328 8.26959 12.8025C8.34033 12.751 8.40391 12.7087 8.46735 12.6452C8.58023 12.5324 8.74504 12.4896 8.86796 12.3799C8.97741 12.2822 9.13917 12.2126 9.2635 12.1297C9.36459 12.0623 9.51796 12.0358 9.63537 12.0012C9.75352 11.9665 9.83148 11.9471 9.95654 11.9471" stroke="#FEFEFE" stroke-width="0.4" stroke-linecap="round"/>
<path d="M11.3564 11.6126C11.3993 11.4842 11.5535 11.3168 11.637 11.2035C11.7238 11.0857 11.8162 10.9746 11.9041 10.8587C12.0639 10.6481 12.2076 10.4705 12.4214 10.3043C12.6189 10.1506 12.854 10.0678 13.0738 9.95267C13.2059 9.88349 13.4727 9.78746 13.564 9.67207C13.6466 9.56775 13.7939 9.53657 13.8886 9.44557C14.0018 9.33669 14.2058 9.23306 14.3517 9.16497C14.6304 9.03492 14.9398 8.78296 15.251 8.78296" stroke="#FEFEFE" stroke-width="0.4" stroke-linecap="round"/>
<path d="M11.2354 11.5517C11.3025 11.5069 11.3987 11.241 11.4331 11.1561C11.475 11.053 11.5115 10.9347 11.5565 10.8383C11.6245 10.6926 11.7266 10.5125 11.8371 10.3887C11.9917 10.2156 12.147 10.0358 12.2867 9.84949C12.4048 9.69207 12.6057 9.58567 12.711 9.42184C12.9161 9.10278 13.2705 8.85697 13.5798 8.64429C13.7106 8.55441 13.8621 8.47052 14.0109 8.41102C14.0721 8.38652 14.0948 8.32646 14.163 8.30284C14.2126 8.28567 14.2866 8.2787 14.3084 8.23523" stroke="#FEFEFE" stroke-width="0.4" stroke-linecap="round"/>
<path d="M11.326 11.7648C10.6596 11.8481 9.94333 11.7072 9.2706 11.7969C8.96015 11.8383 8.68225 12.0053 8.38824 12.0927C8.14174 12.166 7.86617 12.2629 7.65126 12.4037C7.50598 12.4989 7.4003 12.604 7.27939 12.7249C7.19922 12.805 7.10439 12.8374 7.06641 12.9514" stroke="#FEFEFE" stroke-width="0.4" stroke-linecap="round"/>
<path d="M3.90234 17.3021C3.91323 17.215 4.29391 17.0894 4.37057 17.0553C4.43404 17.0271 4.5607 16.9537 4.61566 16.9066C4.70078 16.8336 4.80911 16.8352 4.89119 16.7714C5.04676 16.6504 5.26703 16.634 5.43716 16.5567C5.64948 16.4602 5.84393 16.4502 6.0778 16.4502C6.23182 16.4502 6.42212 16.3945 6.56292 16.3353C6.64508 16.3007 6.72144 16.3312 6.80802 16.2846C6.88582 16.2427 7.01003 16.2676 7.09707 16.2676C7.46218 16.2676 7.82729 16.2676 8.1924 16.2676" stroke="#FEFEFE" stroke-width="0.4" stroke-linecap="round"/>
<path d="M4.38916 19.0668C4.56581 19.0315 4.78823 18.8566 4.95373 18.7761C5.15354 18.6789 5.378 18.6099 5.56225 18.482C5.71659 18.3748 5.89356 18.2927 6.06259 18.2081C6.26898 18.1049 6.4815 17.9633 6.70153 17.9039C6.89565 17.8514 7.14067 17.8241 7.32357 17.745C7.50985 17.6644 7.6965 17.7133 7.88138 17.6605C8.01184 17.6232 8.16584 17.6745 8.29044 17.63C8.47005 17.5659 8.577 17.5455 8.7705 17.5455" stroke="#FEFEFE" stroke-width="0.4" stroke-linecap="round"/>
<path d="M5.05859 21.4096C5.17888 21.3768 5.32869 21.2183 5.42201 21.1375C5.52184 21.0509 5.64591 21.0046 5.72796 20.8991C5.84651 20.7467 6.05786 20.6949 6.17759 20.5442C6.49214 20.148 6.92214 19.8578 7.32364 19.5519C7.53042 19.3944 7.78214 19.37 7.9947 19.2325C8.1761 19.1151 8.39417 19.1509 8.57279 19.0381C8.66025 18.9828 8.77175 19.0129 8.8686 18.9755C8.98991 18.9287 9.07988 18.9147 9.21004 18.9147C9.33738 18.9147 9.46472 18.9147 9.59206 18.9147" stroke="#FEFEFE" stroke-width="0.4" stroke-linecap="round"/>
<path d="M22.0053 11.9777C21.8491 12.1339 21.7014 12.2522 21.5252 12.3901C21.3767 12.5064 21.2446 12.678 21.0857 12.7755C20.8748 12.905 20.6546 13.0384 20.4603 13.1947C20.1248 13.4646 19.7315 13.6631 19.4174 13.9587C19.1591 14.2018 18.8893 14.4658 18.7074 14.7735C18.5989 14.9572 18.5145 15.1602 18.4015 15.3397C18.2301 15.6119 18.1819 15.9634 18.0229 16.2474C17.9343 16.4056 17.8719 16.5798 17.8369 16.7545" stroke="#FEFEFE" stroke-width="0.4" stroke-linecap="round"/>
<path d="M24.3483 12.9209C23.3988 13 22.6078 13.7824 21.9767 14.4135C21.7068 14.6834 21.4921 15.0061 21.2279 15.2806C21.099 15.4146 20.9976 15.6909 20.8188 15.7505" stroke="#FEFEFE" stroke-width="0.4" stroke-linecap="round"/>
<path d="M25.5349 13.4685C25.4837 13.6352 25.3361 13.7735 25.2036 13.8776C25.1228 13.9411 25.0823 14.032 25.0109 14.1007C24.8372 14.2677 24.6084 14.4006 24.4092 14.5334" stroke="#FEFEFE" stroke-width="0.4" stroke-linecap="round"/>
<path d="M25.8395 13.2555C25.8154 12.9903 25.7302 12.7064 25.6502 12.4577C25.6134 12.3432 25.5353 12.257 25.5353 12.1297C25.5353 12.0384 25.4863 11.9653 25.4136 11.9167" stroke="#FEFEFE" stroke-width="0.4" stroke-linecap="round"/>
<path d="M24.5005 12.7686C24.5005 12.4826 24.3335 12.2273 24.318 11.9471C24.311 11.8226 24.2267 11.7323 24.2267 11.5972C24.2267 11.5339 24.179 11.3625 24.105 11.3995" stroke="#FEFEFE" stroke-width="0.4" stroke-linecap="round"/>
<path d="M21.0317 11.3083C21.0475 11.151 21.0926 11.0187 21.0926 10.8519C21.0926 10.712 21.123 10.5796 21.123 10.4395C21.123 10.2856 21.1534 10.1553 21.1534 10" stroke="#FEFEFE" stroke-width="0.4" stroke-linecap="round"/>
<path d="M17.3198 9.57406C17.4037 9.40637 17.6923 9.28828 17.8303 9.15486C17.8959 9.09148 17.9695 9.03914 18.0331 8.97907C18.1129 8.90372 18.1811 8.8555 18.2326 8.75256" stroke="#FEFEFE" stroke-width="0.4" stroke-linecap="round"/>
<path d="M15.3584 8.71847C15.3666 8.55362 15.4576 8.42061 15.4576 8.25561C15.4576 8.1454 15.4576 8.0352 15.4576 7.925C15.4576 7.75603 15.4906 7.59163 15.4906 7.42908" stroke="#FEFEFE" stroke-width="0.4" stroke-linecap="round"/>
<path d="M14.4326 7.95808C14.4591 7.82548 14.6502 7.65329 14.7302 7.53563C14.7977 7.43628 14.8294 7.39341 14.8294 7.26379" stroke="#FEFEFE" stroke-width="0.4" stroke-linecap="round"/>
<path d="M13.0771 7.59436C12.9111 7.70924 12.641 7.72663 12.4507 7.79456C12.1623 7.89759 11.847 8.05762 11.5856 8.21518C11.4097 8.32123 11.2214 8.43912 11.0934 8.60273C10.9448 8.79255 10.716 8.92019 10.5901 9.12253C10.4931 9.2785 10.395 9.42517 10.3164 9.59089C10.2543 9.72215 10.1208 9.83571 10.0758 9.97477C10.0544 10.041 10.0117 10.0724 9.97665 10.1327C9.93169 10.2101 9.95578 10.2957 9.91788 10.3715C9.89083 10.4256 9.83106 10.5688 9.78196 10.5699C9.56592 10.5748 9.37057 10.5038 9.15747 10.5038C8.97384 10.5038 8.79006 10.5018 8.60645 10.5038C8.32054 10.5069 8.02791 10.5899 7.75971 10.6838C7.56333 10.7525 7.35118 10.7896 7.16644 10.9005C6.95066 11.03 6.73442 11.1606 6.51257 11.2715C6.43235 11.3116 6.34123 11.3582 6.26828 11.4129C6.17164 11.4854 6.12653 11.6029 6.00195 11.6278" stroke="#FEFEFE" stroke-width="0.4" stroke-linecap="round"/>
<path d="M11.5895 6.73474C11.0903 6.73474 10.7408 6.78496 10.2928 6.99923C10.1328 7.07574 9.95693 7.21049 9.81888 7.3225C9.69789 7.42066 9.5835 7.57692 9.45704 7.65678C9.33542 7.7336 9.26791 7.86676 9.17419 7.97454C8.93998 8.24388 8.7607 8.54701 8.59929 8.86536C8.5162 9.02922 8.47118 9.2474 8.28337 9.2474C8.2024 9.2474 8.07087 9.18837 7.98582 9.16475C7.86644 9.13158 7.73024 9.14821 7.60745 9.14821C7.24172 9.14821 6.94646 9.35398 6.61561 9.47883C6.23584 9.62214 6.07724 10.082 5.70459 10.2062" stroke="#FEFEFE" stroke-width="0.4" stroke-linecap="round"/>
<path d="M9.14323 5.51147C8.8726 5.63175 8.56649 5.70157 8.31853 5.87515C8.17499 5.97563 8.01027 6.04489 7.85384 6.12311C7.60706 6.24649 7.45125 6.39528 7.25873 6.5878C7.09601 6.75052 6.89611 6.90324 6.78118 7.10025C6.72254 7.20079 6.67227 7.42903 6.53139 7.42903C6.39028 7.42903 6.25408 7.39597 6.10894 7.39597C5.91854 7.39597 5.70402 7.52679 5.53587 7.61087C5.30727 7.72517 5.06949 7.82093 4.84526 7.93964C4.7341 7.99849 4.63752 8.12566 4.51465 8.15638" stroke="#FEFEFE" stroke-width="0.4" stroke-linecap="round"/>
<path d="M7.95305 4.85028C7.64134 4.85028 7.30294 4.8362 7.02734 4.99906C6.78636 5.14145 6.53531 5.28197 6.33305 5.47845C6.0787 5.72553 5.94942 6.07881 5.69754 6.33069C5.55877 6.46946 5.04354 6.36574 4.84529 6.3711C4.54069 6.37933 4.20888 6.63971 3.95264 6.76784" stroke="#FEFEFE" stroke-width="0.4" stroke-linecap="round"/>
<path d="M7.02691 4.22219C6.44886 4.22219 5.68343 4.03434 5.14241 4.30484C5.04389 4.35411 4.96163 4.37822 4.87058 4.43893C4.77489 4.50272 4.69978 4.58352 4.60609 4.65199C4.52107 4.71412 4.49609 4.90326 4.39854 4.88158C4.33447 4.86734 4.31701 4.81729 4.24241 4.81729C4.17874 4.81729 4.11507 4.81729 4.05139 4.81729C3.872 4.81729 3.78027 4.82562 3.6216 4.90913C3.4948 4.97586 3.36368 5.03577 3.24139 5.11301C3.17611 5.15424 3.0908 5.15965 3.01915 5.18832C2.94391 5.21841 2.90289 5.28829 2.82812 5.31321" stroke="#FEFEFE" stroke-width="0.4" stroke-linecap="round"/>
<path d="M4.64638 2.83362C4.29938 2.83362 3.9475 2.91266 3.65638 3.1128C3.5637 3.17652 3.29825 3.33628 3.29087 3.46178C3.28436 3.57242 2.78873 3.53707 2.66271 3.62709C2.5614 3.69945 2.47274 3.75093 2.38169 3.84199C2.33067 3.893 2.29481 3.95981 2.23291 3.99076" stroke="#FEFEFE" stroke-width="0.4" stroke-linecap="round"/>
<path d="M1.07568 0.882812C1.08842 1.02291 1.17529 1.12965 1.20058 1.26118C1.225 1.38818 1.23494 1.50149 1.2667 1.62853C1.32727 1.87081 1.38354 2.13081 1.48895 2.36506C1.57681 2.5603 1.63004 2.75949 1.68732 2.96567C1.73185 3.126 1.80303 3.32826 1.80303 3.49465" stroke="#FEFEFE" stroke-width="0.4" stroke-linecap="round"/>
<path d="M1.2749 1.04822C1.35082 1.05665 1.57203 1.2459 1.61286 1.31271C1.71919 1.4867 1.89581 1.62728 2.01694 1.80495C2.2777 2.1874 2.64918 2.48963 2.9096 2.86842C3.17814 3.25904 3.60972 3.56125 3.85368 3.97598C3.95823 4.1537 4.11727 4.29962 4.23389 4.47006C4.35566 4.64803 4.49106 4.83539 4.63981 4.98986C4.71137 5.06418 4.74699 5.17418 4.81613 5.24333C4.88346 5.31066 4.9659 5.36738 5.03654 5.43802C5.14653 5.54801 5.25062 5.68749 5.3745 5.77598C5.53944 5.89379 5.71371 6.05388 5.87777 6.18741C6.04002 6.31948 6.21885 6.47255 6.34981 6.63374C6.6286 6.97687 6.88731 7.32553 7.20757 7.64578C7.39272 7.83094 7.54736 8.03333 7.7292 8.21517C7.92448 8.41045 8.14293 8.59616 8.36287 8.76435C8.5647 8.91869 8.72062 9.11843 8.8992 9.29701C9.10429 9.50209 9.31655 9.67956 9.49981 9.90864C9.85793 10.3563 10.2659 10.7607 10.6202 11.2127C10.7801 11.4167 10.9848 11.6038 11.1933 11.7527C11.3003 11.8291 11.4115 11.8994 11.5074 11.9897C11.6068 12.0832 11.7596 12.1167 11.8692 12.2064C12.1046 12.399 12.4018 12.5138 12.6296 12.7188C12.8086 12.8799 13.0053 13.05 13.1935 13.1964C13.2546 13.2439 13.3438 13.4506 13.4268 13.5637C13.5422 13.7212 13.6961 13.9316 13.8639 14.034C14.0841 14.1682 14.2687 14.3279 14.4645 14.5042C14.6465 14.668 14.8365 14.9268 15.0541 15.0331C15.2636 15.1356 15.4725 15.3564 15.6327 15.5217C15.7656 15.659 15.9274 15.7409 16.0717 15.8597C16.2705 16.0234 16.5347 16.1811 16.7549 16.3152C17.0189 16.4758 17.2539 16.6846 17.5245 16.835C17.6425 16.9005 17.7103 17.0316 17.8386 17.0829" stroke="#FEFEFE" stroke-width="0.4" stroke-linecap="round"/>
<path d="M3.55566 2.00696C3.63296 2.02804 3.69544 2.10904 3.75771 2.15573C3.91056 2.27038 4.06092 2.37122 4.2022 2.50104C4.45026 2.72899 4.78231 2.85031 5.02873 3.08329C5.35403 3.39085 5.74734 3.57857 6.10873 3.83268C6.69501 4.24491 7.32661 4.69948 7.98955 4.97145C8.16671 5.04413 8.33128 5.13254 8.49649 5.2286C8.65159 5.31877 8.81942 5.35733 8.97955 5.43431C9.36636 5.62028 9.76375 5.77682 10.1789 5.89166C10.7166 6.04037 11.2118 6.26998 11.7347 6.4537C12.0711 6.57192 12.4464 6.69752 12.7467 6.89268C12.9211 7.00607 13.128 7.0917 13.3106 7.20125C13.5025 7.31638 13.6995 7.46709 13.8781 7.60166C14.1942 7.83972 14.5176 8.03365 14.8589 8.23533C15.7509 8.7624 16.5539 9.45491 17.5075 9.89024C17.8882 10.064 18.2774 10.2133 18.6573 10.3898C19.058 10.5759 19.4631 10.6897 19.8751 10.8362C20.1687 10.9405 20.4676 11.0271 20.7549 11.1429C20.8893 11.1971 21.0442 11.2277 21.1847 11.2641C21.3317 11.3022 21.4559 11.3845 21.5998 11.4294C22.5311 11.7205 23.3551 12.2102 24.2043 12.6857C24.3869 12.788 24.5885 12.8532 24.7737 12.9502C24.9756 13.056 25.2657 13.1635 25.4881 13.2129C25.703 13.2606 26.0488 13.3584 26.2026 13.5123" stroke="#FEFEFE" stroke-width="0.4" stroke-linecap="round"/>
<path d="M3.98584 17.116C3.98584 17.5769 4.08756 17.9825 4.28523 18.3943C4.37863 18.5889 4.35581 18.7997 4.46523 18.9821C4.55516 19.132 4.56001 19.3461 4.6287 19.5129C4.68749 19.6557 4.77117 19.9409 4.77931 20.0915C4.78901 20.2709 4.86248 20.4306 4.90421 20.6021C4.97972 20.9125 4.88145 21.2634 4.94462 21.5792" stroke="#FEFEFE" stroke-width="0.4" stroke-linecap="round"/>
</svg>
