<svg width="40" height="40" viewBox="0 0 40 40" fill="none" xmlns="http://www.w3.org/2000/svg">
<path d="M15.3998 38.0875C14.9142 38.09 14.4333 37.9921 13.9873 37.8L11.6623 36.8375C10.7473 36.456 10.0205 35.7276 9.64106 34.8117C9.26159 33.8958 9.26024 32.8669 9.63732 31.95L10.3748 30.1625C10.4037 30.0889 10.4108 30.0085 10.3953 29.9309C10.3798 29.8533 10.3423 29.7819 10.2873 29.725C10.2308 29.6654 10.1578 29.6241 10.0776 29.6063C9.99742 29.5885 9.91376 29.595 9.83732 29.625L8.04982 30.3625C7.59434 30.5508 7.1062 30.6474 6.61334 30.6469C6.12047 30.6464 5.63254 30.5487 5.17746 30.3595C4.72237 30.1703 4.30904 29.8932 3.96112 29.5441C3.6132 29.195 3.33752 28.7807 3.14982 28.325L2.19982 26.025C1.81884 25.1067 1.81813 24.0746 2.19787 23.1558C2.5776 22.2369 3.30668 21.5065 4.22482 21.125L6.01232 20.3875C6.08453 20.352 6.14518 20.2968 6.18722 20.2282C6.22926 20.1596 6.25097 20.0805 6.24982 20C6.2534 19.9175 6.23284 19.8357 6.19066 19.7646C6.14848 19.6936 6.0865 19.6364 6.01232 19.6L4.22482 18.875C3.30668 18.4936 2.5776 17.7631 2.19787 16.8442C1.81813 15.9254 1.81884 14.8933 2.19982 13.975L3.16232 11.65C3.54622 10.7372 4.27558 10.0133 5.19123 9.63628C6.10688 9.25925 7.13449 9.25969 8.04982 9.6375L9.83732 10.375C9.91096 10.4039 9.99135 10.411 10.0689 10.3955C10.1465 10.38 10.218 10.3425 10.2748 10.2875C10.3344 10.231 10.3757 10.1579 10.3935 10.0778C10.4114 9.99761 10.4048 9.91395 10.3748 9.8375L9.63732 8.05C9.44904 7.59452 9.35239 7.10639 9.3529 6.61352C9.35342 6.12066 9.45108 5.63273 9.64032 5.17764C9.82955 4.72255 10.1066 4.30923 10.4557 3.96131C10.8048 3.61339 11.2191 3.3377 11.6748 3.15L13.9748 2.2C14.8932 1.81902 15.9252 1.81832 16.8441 2.19805C17.7629 2.57778 18.4934 3.30686 18.8748 4.225L19.6123 6.0125C19.6478 6.08471 19.7031 6.14536 19.7717 6.1874C19.8403 6.22945 19.9194 6.25115 19.9998 6.25C20.0824 6.25358 20.1642 6.23302 20.2352 6.19084C20.3062 6.14866 20.3634 6.08669 20.3998 6.0125L21.1248 4.225C21.5063 3.30686 22.2367 2.57778 23.1556 2.19805C24.0744 1.81832 25.1065 1.81902 26.0248 2.2L28.3498 3.1625C29.2649 3.54404 29.9916 4.2724 30.3711 5.1883C30.7506 6.10421 30.7519 7.13311 30.3748 8.05L29.6248 9.8375C29.5959 9.91114 29.5888 9.99154 29.6043 10.0691C29.6198 10.1467 29.6573 10.2181 29.7123 10.275C29.7689 10.3346 29.8419 10.3759 29.922 10.3937C30.0022 10.4115 30.0859 10.405 30.1623 10.375L31.9498 9.6375C32.4053 9.44922 32.8934 9.35257 33.3863 9.35309C33.8792 9.3536 34.3671 9.45127 34.8222 9.6405C35.2773 9.82974 35.6906 10.1068 36.0385 10.4559C36.3864 10.805 36.6621 11.2193 36.8498 11.675L37.7998 13.975C38.1808 14.8933 38.1815 15.9254 37.8018 16.8442C37.422 17.7631 36.693 18.4936 35.7748 18.875L33.9873 19.6125C33.9151 19.648 33.8545 19.7032 33.8124 19.7718C33.7704 19.8404 33.7487 19.9196 33.7498 20C33.7462 20.0825 33.7668 20.1643 33.809 20.2354C33.8512 20.3064 33.9131 20.3636 33.9873 20.4L35.7748 21.125C36.693 21.5065 37.422 22.2369 37.8018 23.1558C38.1815 24.0746 38.1808 25.1067 37.7998 26.025L36.8373 28.35C36.4558 29.2651 35.7274 29.9918 34.8115 30.3713C33.8956 30.7507 32.8667 30.7521 31.9498 30.375L30.1623 29.6375C30.0887 29.6086 30.0083 29.6015 29.9307 29.617C29.8531 29.6325 29.7817 29.67 29.7248 29.725C29.6652 29.7815 29.6239 29.8546 29.6061 29.9347C29.5883 30.0149 29.5948 30.0986 29.6248 30.175L30.3623 31.9625C30.5506 32.418 30.6473 32.9061 30.6467 33.399C30.6462 33.8919 30.5486 34.3798 30.3593 34.8349C30.1701 35.29 29.893 35.7033 29.5439 36.0512C29.1948 36.3991 28.7805 36.6748 28.3248 36.8625L26.0248 37.8125C25.1065 38.1935 24.0744 38.1942 23.1556 37.8145C22.2367 37.4347 21.5063 36.7056 21.1248 35.7875L20.3873 34C20.3536 33.9255 20.2992 33.8622 20.2304 33.8179C20.1617 33.7735 20.0816 33.75 19.9998 33.75C19.9173 33.7464 19.8355 33.767 19.7644 33.8092C19.6934 33.8513 19.6362 33.9133 19.5998 33.9875L18.8748 35.775C18.5899 36.4614 18.1075 37.0477 17.4888 37.4594C16.8701 37.8712 16.143 38.0898 15.3998 38.0875ZM9.99982 27.0875C10.4787 27.0914 10.9493 27.2123 11.3708 27.4396C11.7922 27.667 12.1517 27.9939 12.4179 28.392C12.6841 28.7901 12.849 29.2472 12.8981 29.7235C12.9472 30.1999 12.8792 30.681 12.6998 31.125L11.9498 32.9C11.8867 33.0526 11.8543 33.2161 11.8547 33.3813C11.8552 33.5464 11.8883 33.7098 11.9522 33.8621C12.0161 34.0143 12.1096 34.1524 12.2272 34.2683C12.3448 34.3843 12.4842 34.4758 12.6373 34.5375L14.9998 35.5C15.1524 35.5632 15.316 35.5955 15.4811 35.5951C15.6462 35.5947 15.8096 35.5616 15.9619 35.4976C16.1141 35.4337 16.2522 35.3402 16.3682 35.2226C16.4841 35.1051 16.5756 34.9657 16.6373 34.8125L17.3623 33.05C17.5762 32.5238 17.9405 32.0724 18.4096 31.7522C18.8787 31.4321 19.4319 31.2574 19.9998 31.25C20.5749 31.2465 21.1378 31.4147 21.6166 31.7332C22.0955 32.0516 22.4683 32.5058 22.6873 33.0375L23.4248 34.8125C23.4878 34.9646 23.5801 35.1027 23.6966 35.2189C23.813 35.3352 23.9513 35.4274 24.1034 35.4901C24.2555 35.5528 24.4186 35.5848 24.5831 35.5844C24.7477 35.584 24.9105 35.551 25.0623 35.4875L27.3748 34.5375C27.6766 34.4052 27.9175 34.1643 28.0498 33.8625C28.1134 33.71 28.1462 33.5465 28.1462 33.3813C28.1462 33.216 28.1134 33.0525 28.0498 32.9L27.3123 31.125C27.1215 30.6016 27.0841 30.0347 27.2045 29.4908C27.3249 28.9469 27.5982 28.4487 27.9921 28.0548C28.386 27.6608 28.8842 27.3876 29.4281 27.2672C29.972 27.1468 30.539 27.1842 31.0623 27.375L32.8373 28.125C32.9899 28.1882 33.1535 28.2205 33.3186 28.2201C33.4837 28.2197 33.6471 28.1866 33.7994 28.1226C33.9516 28.0587 34.0897 27.9652 34.2057 27.8476C34.3216 27.7301 34.4131 27.5907 34.4748 27.4375L35.4373 25.125C35.5005 24.9724 35.5328 24.8089 35.5324 24.6437C35.532 24.4786 35.4989 24.3152 35.4349 24.1629C35.371 24.0107 35.2776 23.8726 35.16 23.7567C35.0424 23.6407 34.903 23.5493 34.7498 23.4875L32.9873 22.7625C32.458 22.5385 32.0065 22.1636 31.689 21.6845C31.3715 21.2055 31.2022 20.6435 31.2022 20.0688C31.2022 19.494 31.3715 18.9321 31.689 18.453C32.0065 17.9739 32.458 17.599 32.9873 17.375L34.7623 16.6375C34.9188 16.5794 35.0621 16.4906 35.1836 16.3762C35.3052 16.2619 35.4027 16.1243 35.4703 15.9717C35.5378 15.8191 35.5742 15.6545 35.5771 15.4876C35.58 15.3207 35.5495 15.1549 35.4873 15L34.5373 12.6875C34.405 12.3858 34.1641 12.1448 33.8623 12.0125C33.7098 11.9489 33.5463 11.9162 33.3811 11.9162C33.2159 11.9162 33.0523 11.9489 32.8998 12.0125L31.1248 12.75C30.5949 12.9493 30.0185 12.9905 29.4655 12.8686C28.9126 12.7467 28.407 12.467 28.0099 12.0633C27.6129 11.6597 27.3415 11.1495 27.2288 10.5946C27.1161 10.0397 27.1668 9.4641 27.3748 8.9375L28.1248 7.1625C28.188 7.00993 28.2203 6.84636 28.2199 6.68123C28.2195 6.5161 28.1864 6.35269 28.1224 6.20043C28.0585 6.04818 27.9651 5.91009 27.8475 5.79416C27.7299 5.67823 27.5905 5.58675 27.4373 5.525L25.0623 4.5C24.9097 4.43683 24.7462 4.40452 24.581 4.40493C24.4159 4.40534 24.2525 4.43846 24.1002 4.50238C23.948 4.56631 23.8099 4.65977 23.694 4.77736C23.578 4.89495 23.4866 5.03435 23.4248 5.1875L22.6998 6.95C22.4819 7.48602 22.108 7.9442 21.6266 8.26516C21.1452 8.58611 20.5784 8.75503 19.9998 8.75C19.4248 8.75353 18.8618 8.58529 18.383 8.26682C17.9042 7.94836 17.5314 7.49419 17.3123 6.9625L16.5748 5.1875C16.4477 4.89554 16.2139 4.66311 15.9212 4.53767C15.6285 4.41222 15.2989 4.40322 14.9998 4.5125L12.6873 5.4625C12.3856 5.59481 12.1446 5.83576 12.0123 6.1375C11.9487 6.28998 11.916 6.45355 11.916 6.61875C11.916 6.78396 11.9487 6.94753 12.0123 7.1L12.7498 8.875C12.9772 9.41466 13.0374 10.0102 12.9226 10.5844C12.8078 11.1587 12.5232 11.6852 12.1058 12.0959C11.6883 12.5066 11.1572 12.7826 10.5812 12.8881C10.0051 12.9935 9.41071 12.9237 8.87482 12.6875L7.09982 11.9375C6.94725 11.8743 6.78368 11.842 6.61855 11.8424C6.45342 11.8428 6.29 11.876 6.13775 11.9399C5.98549 12.0038 5.84741 12.0973 5.73148 12.2149C5.61555 12.3325 5.52407 12.4719 5.46232 12.625L4.49982 15C4.43665 15.1526 4.40434 15.3161 4.40475 15.4813C4.40515 15.6464 4.43828 15.8098 4.5022 15.9621C4.56613 16.1143 4.65958 16.2524 4.77718 16.3683C4.89477 16.4843 5.03417 16.5758 5.18732 16.6375L6.94982 17.3625C7.4791 17.5865 7.93068 17.9614 8.24815 18.4405C8.56563 18.9196 8.73494 19.4815 8.73494 20.0563C8.73494 20.631 8.56563 21.193 8.24815 21.672C7.93068 22.1511 7.4791 22.526 6.94982 22.75L5.17482 23.4875C5.02278 23.5504 4.88466 23.6428 4.76838 23.7592C4.65211 23.8757 4.55997 24.0139 4.49726 24.1661C4.43455 24.3182 4.40249 24.4812 4.40293 24.6458C4.40337 24.8104 4.4363 24.9732 4.49982 25.125L5.44982 27.4375C5.58212 27.7393 5.82307 27.9802 6.12482 28.1125C6.27729 28.1761 6.44086 28.2089 6.60607 28.2089C6.77128 28.2089 6.93485 28.1761 7.08732 28.1125L8.86232 27.375C9.21794 27.2027 9.60503 27.1048 9.99982 27.0875ZM19.9998 26.25C18.9714 26.2519 17.9584 26 17.0507 25.5166C16.143 25.0333 15.3686 24.3334 14.7961 23.479C14.2237 22.6247 13.8709 21.6423 13.7691 20.6189C13.6672 19.5956 13.8195 18.5629 14.2123 17.6125C14.6446 16.5668 15.3526 15.6581 16.2608 14.9832C17.1691 14.3084 18.2435 13.8928 19.3694 13.7807C20.4954 13.6687 21.6306 13.8644 22.654 14.347C23.6775 14.8296 24.5507 15.581 25.1805 16.521C25.8104 17.461 26.1732 18.5544 26.2304 19.6844C26.2875 20.8145 26.0368 21.9389 25.5049 22.9376C24.9731 23.9364 24.1801 24.772 23.2106 25.3553C22.241 25.9387 21.1313 26.2479 19.9998 26.25ZM19.9998 16.25C19.5066 16.2523 19.0185 16.3499 18.5623 16.5375C17.6442 16.919 16.9151 17.6494 16.5354 18.5683C16.1556 19.4871 16.1563 20.5192 16.5373 21.4375C16.9188 22.3556 17.6492 23.0847 18.5681 23.4645C19.4869 23.8442 20.519 23.8435 21.4373 23.4625C22.1213 23.1781 22.7057 22.6974 23.1168 22.0812C23.5279 21.465 23.7473 20.7408 23.7473 20C23.7473 19.2592 23.5279 18.5351 23.1168 17.9188C22.7057 17.3026 22.1213 16.822 21.4373 16.5375C20.9829 16.3441 20.4936 16.2462 19.9998 16.25Z" fill="#D9D9D9"/>
</svg>
