<svg width="40" height="40" viewBox="0 0 40 40" fill="none" xmlns="http://www.w3.org/2000/svg">
<g clip-path="url(#clip0_96_2)">
<path d="M38.8876 26.2894C37.3462 25.709 36.2741 25.2435 35.6725 24.8887C34.5813 24.284 33.8612 23.0904 33.514 21.3059C33.2262 19.8232 33.419 18.4329 34.094 17.1425C34.7682 15.8488 35.8154 14.9698 37.2329 14.5069L37.1712 14.1887C38.2362 13.8509 39.1444 13.55 39.8954 13.2853V13.1059L35.0475 14.4123C34.8415 14.4841 34.3616 14.4363 33.6075 14.2692C32.4893 14.0154 31.4857 13.4173 30.5969 12.4745C29.7068 11.5345 29.1506 10.4885 28.9269 9.33837C28.6438 7.88454 28.8807 6.60013 29.6366 5.47851L29.4282 5.37807C30.026 4.36175 30.5376 3.4866 30.9632 2.75131H30.666C30.1065 3.60072 29.6469 4.31263 29.2866 4.88704C28.7985 5.60998 28.436 6.16763 28.1987 6.55925C27.6129 7.26895 26.6415 7.75719 25.2796 8.02219C22.7079 8.52248 20.5612 7.82469 18.8438 5.92734C18.3928 5.3894 18.1249 4.98498 18.0421 4.71734C17.7334 3.21645 17.4701 2.00366 17.2537 1.0791H17.0385C17.1712 2.03998 17.2935 2.80719 17.4054 3.38101L17.1781 3.42469C17.4413 5.10175 17.111 6.62763 16.1846 8.00028C15.2578 9.37278 13.9624 10.2225 12.299 10.5459C10.6951 10.8578 9.19779 10.5045 7.80706 9.48734L7.79794 9.44146L7.68074 9.55954C6.57118 8.76248 5.65044 8.10734 4.91912 7.59454H4.58206C5.31103 8.16675 6.04485 8.73793 6.78324 9.30954C8.41441 10.5938 9.35118 11.8578 9.59235 13.0976C9.91559 14.7616 9.58471 16.3323 8.60177 17.8119C7.61779 19.2907 6.30794 20.1898 4.67338 20.5072C4.43221 20.5545 4.17147 20.5882 3.89353 20.611L3.78588 20.5381C3.74603 20.6707 3.71382 20.741 3.68382 20.747L0 21.2485V21.5559C1.32074 21.427 2.42103 21.3072 3.30059 21.1973L4.96118 21.0172C6.21221 21.1491 7.27353 21.6818 8.145 22.6104C9.01559 23.5403 9.57485 24.6413 9.82177 25.9123C10.1691 27.6967 9.94397 29.1218 9.14706 30.1887C8.49647 30.8809 7.98544 31.4029 7.61427 31.757C6.915 32.414 6.22324 33.0681 5.54147 33.7207H6.16765C6.91353 33.0037 7.54382 32.3834 8.05853 31.8595L8.11353 31.8965C9.02956 31.1213 9.98853 30.6376 10.9868 30.4432C12.6496 30.1201 14.1987 30.4525 15.6324 31.4469C17.0665 32.4403 17.945 33.769 18.2682 35.4326C18.3684 35.947 18.3388 36.9269 18.1813 38.3698L18.1171 38.921H18.3279C18.4865 37.9072 18.6066 37.0626 18.6884 36.387C19.335 34.2204 20.8846 32.8982 23.3341 32.4218C24.8476 32.1276 26.1462 32.269 27.2316 32.8415C28.039 33.2793 28.855 34.0812 29.6771 35.2403C29.9376 35.6294 30.196 36.0166 30.4519 36.4018H30.7682L30.5974 36.0976C29.8304 34.7395 29.4154 33.8932 29.3506 33.5612C29.0093 31.8054 29.285 30.1897 30.1747 28.7138C31.0651 27.2385 32.3725 26.3318 34.0968 25.9965C35.0341 25.8141 36.1053 25.9045 37.3059 26.267L37.3981 26.0128C38.4275 26.3894 39.2949 26.7043 40 26.9575V26.7203C39.6588 26.5835 39.2876 26.44 38.8876 26.2894ZM34.9906 14.8478C34.87 14.8712 35.0756 14.8787 35.6068 14.8694C33.3987 16.4288 32.5621 18.5869 33.0966 21.3376C33.3266 22.52 33.8438 23.5654 34.6488 24.475L33.12 23.8782L33.1026 23.7873C31.5099 23.1866 30.5522 22.0538 30.2282 20.3897C29.6518 17.4235 31.2394 15.577 34.9906 14.8478ZM13.0988 23.6253C12.7876 22.0229 11.9347 20.9473 10.54 20.4016C12.8056 19.9309 14.13 20.6941 14.5179 22.6903C14.7416 23.8407 14.4172 24.8298 13.5416 25.6591L13.6046 25.7406L12.8126 26.5082C13.1863 25.5242 13.2812 24.5631 13.0988 23.6253ZM12.9824 14.7934C12.9119 14.4295 12.7937 14.0606 12.626 13.6856C13.6146 14.4028 14.1844 15.1563 14.3374 15.9438C14.5197 16.8803 14.3124 17.7454 13.7107 18.5373C13.1116 19.3292 12.3437 19.7387 11.4063 19.7635L11.3785 19.8625L10.4081 19.9578C11.3769 19.4541 12.1013 18.7323 12.5771 17.7919C13.0528 16.8522 13.1884 15.8517 12.9824 14.7934ZM26.4654 11.7012C26.671 12.7603 27.1669 13.6529 27.9524 14.3794C28.7374 15.1054 29.6646 15.5528 30.7329 15.7232L28.1076 16.5163C27.4847 16.6995 26.8565 16.4982 26.2265 15.916C25.5938 15.332 25.2165 14.7228 25.0922 14.0848C24.9453 13.33 25.071 12.6013 25.4679 11.8954L25.4588 11.8491L26.3909 10.3491C26.3401 10.736 26.3651 11.1869 26.4654 11.7012ZM26.8572 20.0073C26.9874 20.6757 27.2512 21.2356 27.6541 21.691L25.8266 21.0084L25.9179 20.7559L25.8725 20.7647C25.2632 20.5382 24.9003 20.1217 24.7828 19.5172C24.5475 18.307 25.4575 17.501 27.5149 17.101L27.6975 17.0653C26.9132 17.8787 26.634 18.8597 26.8572 20.0073ZM17.1846 21.1351C17.055 20.4697 16.7554 19.9792 16.2859 19.6623L17.8376 19.407L17.9182 19.5803L17.9719 19.6172C18.3715 19.569 18.6175 19.7895 18.7124 20.2744C18.7591 20.516 18.5754 20.8645 18.1631 21.3225C17.8099 21.611 17.4734 21.8963 17.1513 22.1784C17.2376 21.8168 17.2494 21.4688 17.1846 21.1351ZM14.7831 22.5928C14.5534 21.4119 13.9357 20.5744 12.9279 20.0794L13.0641 20.0532C14.0329 19.8648 14.9054 19.7584 15.6854 19.7315C16.386 20.0979 16.7975 20.5985 16.921 21.2335C17.0325 21.8081 16.781 22.454 16.1671 23.1697C15.6368 23.6823 15.1118 24.2073 14.5888 24.7497C14.8518 24.0076 14.9181 23.2885 14.7831 22.5928ZM14.7465 15.864C14.7171 15.7132 14.634 15.4459 14.4962 15.0647C15.3753 15.7092 16.0337 16.1937 16.4743 16.5163L16.5988 16.9163C16.6984 17.4309 16.6065 17.9206 16.3196 18.3842C16.0335 18.8482 15.6468 19.1263 15.1631 19.2204L14.9279 19.2188L14.9263 19.4548L13.075 19.6265C14.5082 18.7523 15.0637 17.4956 14.7465 15.864ZM24.4106 19.5426C24.4932 19.9663 24.6757 20.3392 24.9581 20.6607L24.9122 20.6695C24.4782 20.5341 24.0551 20.3826 23.6453 20.2101C23.0963 19.9713 22.7991 19.7307 22.7524 19.4891C22.6697 19.0642 22.8168 18.7701 23.1919 18.6025C23.1862 18.5717 23.1774 18.5285 23.1653 18.4653L23.1387 18.3301L24.7547 17.9206C24.4074 18.3951 24.2929 18.9367 24.4106 19.5426ZM20.9297 19.3256L22.5307 20.0485C22.2025 20.1448 21.9638 20.3642 21.8116 20.7065L20.9297 19.3256ZM21.7181 21.1967C21.4222 21.1282 21.1834 21.111 21.001 21.1469C20.7299 21.199 20.5166 21.3201 20.3654 21.5076C20.4416 20.6135 20.4791 19.8354 20.4769 19.1778L20.6321 19.0051L21.7001 21.1041L21.7181 21.1967ZM22.3253 19.4767L22.4149 19.6954C21.7137 19.4856 21.1953 19.3209 20.8572 19.1959L20.6679 18.9506C21.129 18.8928 21.6703 18.7725 22.2937 18.5881L22.5382 18.6348C22.3429 18.924 22.2725 19.2041 22.3253 19.4767ZM20.9688 18.7982L21.6272 17.8242C21.8056 18.1035 21.955 18.2934 22.0679 18.3951L20.9688 18.7982ZM22.2793 18.0253C22.1226 17.8672 22.0324 17.7285 22.0088 17.6065C21.9676 17.3954 22.0941 17.0729 22.3863 16.639C22.5812 16.3488 22.7924 16.0581 23.0166 15.7625C23.0324 16.1681 23.2163 16.5472 23.5674 16.9028C23.9191 17.26 24.2913 17.477 24.6844 17.5575L22.686 18.1819C22.5718 18.237 22.4347 18.1841 22.2793 18.0253ZM21.8854 16.9715L21.7768 16.8985C21.5946 17.0925 21.4125 17.2048 21.2313 17.2403C20.7163 17.3406 20.4187 17.1792 20.336 16.7547L20.0366 14.975C20.7719 15.5235 21.5171 15.7256 22.2732 15.5785C22.3034 15.5725 22.3913 15.5385 22.5375 15.479C22.6285 15.4616 22.7035 15.4466 22.765 15.435L21.8854 16.9715ZM20.5793 18.7323C20.6228 18.6301 20.5912 18.2287 20.4862 17.5266C20.7691 17.6916 21.0626 17.7441 21.3641 17.6851L21.4921 17.614C21.2241 18.1685 21.019 18.5698 20.8774 18.8162L20.4143 19.095L20.3509 19.0122L20.441 18.9948L20.2515 18.9851C19.7632 18.5785 19.3897 18.2735 19.1319 18.0729C19.5976 18.0456 19.9621 17.8176 20.2235 17.3887C20.4024 17.9823 20.5204 18.4307 20.5793 18.7323ZM20.061 18.975L18.8543 19.0676C18.9949 18.8225 19.0568 18.5737 19.04 18.3272L20.061 18.975ZM20.1706 19.0473L20.3332 19.1584L19.0557 20.349C19.004 19.9184 18.8331 19.6063 18.5441 19.4112L18.7078 19.2854C19.114 19.2695 19.5997 19.19 20.1706 19.0473ZM20.4412 19.2313L20.0943 21.3223C19.8794 20.8631 19.5153 20.682 18.9987 20.7822L20.4412 19.2313ZM20.28 22.1587C20.3306 21.6938 20.5526 21.4234 20.946 21.3466C21.3396 21.2704 21.6656 21.4115 21.924 21.7672L22.0503 21.6969L22.7953 23.1068C22.3672 22.8444 21.8813 22.766 21.3359 22.872C20.8834 22.9601 20.499 23.1598 20.1818 23.4737C20.1972 23.0632 20.2293 22.625 20.28 22.1587ZM22.026 21.089C22.0474 20.7085 22.2674 20.4779 22.6922 20.395C22.85 20.395 22.9949 20.4135 23.1276 20.4506L23.1465 20.3067L24.3312 20.8297C24.0038 20.9253 23.6985 21.1718 23.4159 21.5731C23.1329 21.9741 22.9932 22.346 22.9971 22.6897L22.026 21.089ZM24.3299 16.9442C23.8372 16.6798 23.5425 16.2888 23.4422 15.7745C23.3716 15.4098 23.4891 14.964 23.7944 14.4341C24.0628 14.0359 24.3285 13.6222 24.5901 13.1957C24.5874 13.5101 24.6076 13.7731 24.649 13.9853C24.9372 15.4679 25.7175 16.4156 26.9915 16.8267L25.8829 17.1831L25.8649 17.0925C25.3326 17.259 24.821 17.2097 24.3299 16.9442ZM23.3763 14.4673L23.2218 14.4041C23.0815 14.8072 22.739 15.0632 22.1943 15.1687C20.8329 15.4338 20.0132 14.8542 19.7369 13.4329L19.5796 12.3807C20.5347 13.4178 21.8003 13.7863 23.3738 13.4804C23.4634 13.4625 23.7122 13.3667 24.1182 13.1942L23.3763 14.4673ZM19.5849 14.8284L19.6663 14.7656L20.0459 16.7176L19.9103 16.7438C19.9432 17.2395 19.7182 17.5341 19.2344 17.6282C19.0226 17.6695 18.8104 17.6332 18.6003 17.516L18.5263 17.6244L16.8565 16.3007C17.1215 16.3747 17.4207 16.3809 17.7534 16.316C18.6619 16.1398 19.2718 15.6428 19.5849 14.8284ZM17.0162 16.8823C17.6729 17.3495 18.1635 17.6954 18.4903 17.9145L18.6499 18.2597C18.6793 18.4116 18.6441 18.5907 18.5429 18.7987C18.4421 19.0073 18.3313 19.1219 18.2106 19.1454L15.8059 19.3781C16.2063 19.1748 16.5366 18.8206 16.8004 18.315C17.0632 17.8082 17.1341 17.3298 17.0162 16.8823ZM18.5709 21.2432L18.6709 21.2713C18.7738 21.1572 18.9006 21.0844 19.0519 21.0554C19.4753 20.9728 19.8068 21.144 20.0485 21.5691L19.7528 23.9323C19.7257 23.4684 19.4641 23.0556 18.9713 22.6962C18.4775 22.337 18.0216 22.2129 17.6043 22.3262L17.5125 22.3435L18.5709 21.2432ZM20.1443 23.7638C20.5096 23.3778 20.8872 23.1465 21.2812 23.0698C22.0685 22.9169 22.7619 23.2548 23.3616 24.0803C23.4459 24.1887 23.8585 24.9413 24.6022 26.3342C23.7687 25.7737 22.8847 25.586 21.9469 25.7682C21.0694 25.9385 20.3478 26.3456 19.7822 26.9887C19.9469 25.5763 20.0682 24.5022 20.1443 23.7638ZM23.3303 23.1898C23.2424 22.7378 23.3428 22.2865 23.6332 21.8362C23.9232 21.3887 24.2944 21.1195 24.7475 21.0315C24.8444 21.045 24.9084 21.0466 24.9374 21.041C26.2651 21.5666 27.2543 21.9734 27.9054 22.2548C26.9916 22.4001 26.2384 22.7687 25.6463 23.3526C25.054 23.9394 24.7368 24.6925 24.6954 25.6109C23.7738 23.9365 23.3188 23.131 23.3303 23.1898ZM24.7584 12.1262C24.3266 12.6503 23.7481 12.984 23.0213 13.125C22.2049 13.284 21.4166 13.1466 20.656 12.7113C19.8966 12.2792 19.4379 11.6538 19.2796 10.8373L18.961 9.20234C20.2582 10.8666 21.9968 11.485 24.1749 11.0615C24.7501 10.9492 25.3046 10.7332 25.8384 10.4092C25.1428 11.5182 24.7828 12.0915 24.7584 12.1262ZM19.1619 12.4154L19.4084 13.6844L19.3187 13.7019C19.4574 14.8998 18.9053 15.6192 17.6644 15.8606C17.0593 15.9784 16.5993 15.8657 16.2797 15.5178L16.0876 15.7431L15.0407 14.9594C15.5124 14.961 15.8841 14.9366 16.1565 14.8837C17.6693 14.5892 18.6725 13.7654 19.1619 12.4154ZM18.1699 13.2431C17.5607 13.9115 16.8496 14.325 16.0322 14.484C15.3066 14.6248 14.6791 14.5563 14.156 14.2826C14.0901 14.2641 13.5774 13.8931 12.6199 13.1685C13.2121 13.3051 13.8399 13.3072 14.5068 13.1776C16.6544 12.7597 17.9916 11.48 18.5174 9.33704L18.8615 11.1078C19.0084 11.8631 18.7772 12.5759 18.1699 13.2431ZM13.9221 25.9159C14.3956 25.4462 14.8293 25.1726 15.2225 25.0963C16.07 24.9316 16.8662 25.1063 17.6091 25.6231C18.3526 26.1375 18.8099 26.8326 18.9803 27.7109C18.9982 27.8015 19.0065 27.9645 19.0057 28.2C19.0047 28.4372 19.0112 28.6001 19.0291 28.6918L19.0381 28.7354L19.1669 28.4276L18.929 30.594C18.7238 29.2201 18.0935 28.1968 17.0371 27.5226C15.9796 26.8491 14.7554 26.6473 13.3626 26.9178C13.1209 26.9645 12.9446 27.031 12.8354 27.116C13.1949 26.7006 13.5563 26.3012 13.9221 25.9159ZM19.1225 28.2015C19.1484 28.0076 19.1403 27.8054 19.0988 27.5922C18.9172 26.6567 18.4359 25.9181 17.6563 25.3773C16.8757 24.8397 16.0006 24.6622 15.0326 24.85C16.2369 23.6129 16.9444 22.8944 17.1576 22.6941L17.5122 22.579C17.9954 22.4856 18.4456 22.579 18.8615 22.859C19.2774 23.14 19.5315 23.5204 19.6256 24.0057C19.6731 24.2479 19.6287 24.9479 19.4924 26.1044C19.3559 27.2595 19.2337 27.9606 19.1225 28.2015ZM19.7444 27.2788C20.2387 26.5881 20.9531 26.15 21.8916 25.9675C23.3438 25.6848 24.4416 26.1629 25.1851 27.4L25.2309 27.3909L26.6759 29.984C25.3463 28.64 23.8207 28.1348 22.0965 28.4704C20.9756 28.6879 20.0912 29.3013 19.4387 30.3068C19.5832 28.9591 19.6878 27.9501 19.7444 27.2788ZM26.5376 28.7854L24.9926 26.1638C24.8932 25.3369 25.0922 24.5841 25.5888 23.9062C26.0843 23.2281 26.7419 22.8095 27.5593 22.6506C28.2235 22.521 29.3784 22.8004 31.019 23.4851C29.6624 23.7804 28.5804 24.3922 27.7722 25.3194C26.9634 26.246 26.5519 27.4012 26.5376 28.7854ZM28.8225 22.1223C27.9719 21.6291 27.4569 20.9126 27.2746 19.9747C26.9569 18.3403 27.5338 17.2726 29.0043 16.7644L29.0335 16.6672L31.1676 16.0145C29.9694 17.2842 29.5353 18.767 29.8646 20.4604C30.0762 21.5498 30.5831 22.4581 31.3846 23.18C29.8199 22.5735 28.9672 22.222 28.8225 22.1223ZM28.5776 6.81513C28.3628 7.64175 28.3416 8.50998 28.5182 9.41793C28.7831 10.7795 29.4088 11.9367 30.395 12.8915C31.3822 13.8457 32.5463 14.4751 33.894 14.7779L32.1868 15.205C30.9771 15.4401 29.8562 15.2032 28.8222 14.4932C27.7897 13.7825 27.1563 12.8223 26.9207 11.6131C26.8443 11.2185 26.8421 10.6925 26.9191 10.0337C26.9954 9.37631 27.1615 8.97484 27.4151 8.83043L27.3612 8.79425L28.5776 6.81513ZM21.4935 8.1691C22.77 8.59601 24.0574 8.68293 25.3594 8.42984C26.1769 8.27087 26.9076 8.00322 27.5569 7.62469L26.9815 8.53895L26.9363 8.54778C26.4887 9.63969 25.54 10.3256 24.0872 10.6081C22.906 10.8378 21.7557 10.6532 20.6347 10.0544C19.5132 9.45719 18.8381 8.56675 18.6082 7.38704L18.335 5.98057C19.1637 7.01351 20.2162 7.74248 21.4935 8.1691ZM12.3779 10.9534C13.8001 10.6772 15.0301 9.97675 16.0665 8.84704C17.1022 7.7191 17.6549 6.44087 17.7228 5.01484L18.235 7.64969C18.4224 8.77366 18.1159 9.85396 17.3121 10.8897C16.5071 11.925 15.5316 12.5544 14.3819 12.7781C13.1712 13.0131 12.1325 12.7595 11.2671 12.0182L11.1843 12.0815L9.48632 10.855C10.506 11.0992 11.471 11.1301 12.3779 10.9534ZM9.27824 17.4197C10.0185 15.9754 10.2431 14.5094 9.95529 13.0275C9.84309 12.4528 9.63897 11.88 9.33927 11.3109C10.0249 11.7719 10.6993 12.2528 11.3628 12.7537C12.0112 13.3492 12.4156 14.0557 12.5747 14.8726C12.8037 16.0515 12.5913 17.1385 11.936 18.1297C11.2812 19.1213 10.3797 19.7282 9.22941 19.9519C8.9275 20.0107 8.71118 20.0363 8.58544 20.0297L8.56529 20.1738L6.08 20.469C7.47324 19.8844 8.53926 18.8679 9.27824 17.4197ZM10.1316 25.8031C9.63132 23.2328 8.26206 21.5995 6.02324 20.904C7.59515 20.5981 8.82309 20.4526 9.70647 20.4697C10.4065 20.5231 11.0606 20.8903 11.6647 21.5754C12.2679 22.2575 12.6429 22.9768 12.7906 23.7332C13.0316 24.9744 12.821 26.0659 12.1557 27.011C12.0157 27.2597 11.2343 28.0863 9.81206 29.4935C10.2672 28.2738 10.3726 27.0447 10.1316 25.8031ZM18.3765 35.5069C18.3893 35.2525 18.2991 34.8606 18.1022 34.3347C17.6007 32.8928 16.6531 31.7669 15.2541 30.9563C13.8559 30.1434 12.4013 29.885 10.8879 30.1797C10.3132 30.2912 9.71353 30.5184 9.08853 30.859C9.78868 30.0953 10.4896 29.3457 11.1953 28.6117C12.1257 27.7425 12.9678 27.2313 13.725 27.0843C14.9943 26.837 16.1082 27.0675 17.0634 27.7766C18.0174 28.4876 18.614 29.4616 18.8557 30.7031C18.8962 30.9151 18.7372 32.5157 18.3765 35.5069ZM28.8601 33.7041C27.266 32.2865 25.4243 31.7804 23.3363 32.1859C21.1884 32.604 19.6675 33.826 18.7743 35.8519C19.04 33.5093 19.2494 31.7562 19.3996 30.5972C20.0766 29.5545 20.9596 28.927 22.0497 28.7145C24.1662 28.3031 25.8757 29.1022 27.1781 31.109L27.305 31.0369L28.8601 33.7041ZM34.0715 25.6259C32.3471 25.9604 31.0065 26.8559 30.0503 28.3138C29.0928 29.7715 28.736 31.3717 28.9807 33.1147L26.8431 29.3851C26.7218 28.121 27.0291 26.9544 27.7643 25.8859C28.4988 24.8163 29.485 24.1616 30.7254 23.9207C31.2404 23.8204 31.6301 23.8062 31.8965 23.8809C32.2888 23.962 32.9801 24.2107 33.9724 24.6316C34.9641 25.0506 35.5901 25.3612 35.8496 25.5628C35.2088 25.4973 34.6168 25.5197 34.0715 25.6259Z" fill="#EBEBEB"/>
</g>
<defs>
<clipPath id="clip0_96_2">
<rect width="40" height="40" fill="white"/>
</clipPath>
</defs>
</svg>
