<svg width="30" height="34" viewBox="0 0 30 34" fill="none" xmlns="http://www.w3.org/2000/svg">
<mask id="mask0_92_348" style="mask-type:alpha" maskUnits="userSpaceOnUse" x="0" y="9" width="30" height="16">
<path fill-rule="evenodd" clip-rule="evenodd" d="M3.46154 9.06667C1.56345 9.06667 0 10.6023 0 12.4667V21.5333C0 23.3977 1.56345 24.9333 3.46154 24.9333H18.4615C20.3596 24.9333 21.9231 23.3977 21.9231 21.5333V19.4637L27.219 23.924C28.2484 24.7905 30 23.9983 30 22.6667V11.3333C30 10.6675 29.5614 10.1372 28.9949 9.88125C28.4283 9.62531 27.7337 9.64277 27.219 10.076L21.9231 14.5363V12.4667C21.9231 10.6023 20.3596 9.06667 18.4615 9.06667H3.46154Z" fill="black"/>
</mask>
<g mask="url(#mask0_92_348)">
<path d="M6.96191 23.0485C7.0825 23.2733 7.41872 23.3212 7.54435 23.5286C7.63037 23.6706 7.80935 23.7829 7.92748 23.9112C8.09353 24.0916 8.32169 24.2282 8.52056 24.3643C9.42267 24.9817 10.2418 25.7829 11.1589 26.3913C11.3731 26.5334 11.5191 26.7431 11.7566 26.8624C11.9688 26.9689 12.166 27.1485 12.3607 27.2826C12.5754 27.4306 12.7926 27.6378 12.9924 27.8106C13.1665 27.9612 13.3903 28.2111 13.5861 28.3116C13.9498 28.4984 14.304 28.8104 14.6389 29.0566C14.8071 29.1802 14.8581 29.3171 15.0711 29.3937C15.1572 29.4246 15.3094 29.5535 15.3435 29.6372" stroke="#FEFEFE" stroke-width="0.4" stroke-linecap="round"/>
<path d="M10.7389 26.1033C10.8466 25.9757 10.8646 25.4555 10.8874 25.2858C10.9163 25.0694 10.9654 24.8784 11.0074 24.6641C11.0935 24.2254 11.2628 23.6606 11.525 23.3049C11.7666 22.9771 11.9543 22.5665 12.2488 22.2728C12.6433 21.8796 13.0559 21.5451 13.4912 21.2053C14.2265 20.6311 15.2394 20.3049 16.1205 20.0292C16.4543 19.9248 16.7762 19.867 17.1038 19.7335C17.159 19.711 17.3539 19.6505 17.4086 19.6717C17.4959 19.7055 17.5393 19.7602 17.6345 19.7215" stroke="#FEFEFE" stroke-width="0.4" stroke-linecap="round"/>
<path d="M17.8373 19.7408C17.6856 19.2731 17.8032 18.7995 17.7036 18.3436C17.6332 18.0213 17.6788 17.5765 17.8063 17.2809C17.8918 17.0828 17.9024 16.8454 17.9864 16.6405C18.0807 16.4105 18.2721 16.1906 18.3391 15.9524C18.4002 15.7349 18.5553 15.5839 18.6419 15.381C18.7237 15.1896 18.8243 14.9311 18.9363 14.7621C19.1705 14.4085 19.3789 14.0343 19.6092 13.6912C19.9114 13.2408 20.3703 12.9113 20.738 12.5111C21.2227 11.9837 21.8322 11.6826 22.4813 11.4181" stroke="#FEFEFE" stroke-width="0.4" stroke-linecap="round"/>
<path d="M22.4807 11.4183C22.4238 11.2786 22.2972 11.0817 22.2938 10.933C22.2908 10.7978 22.2895 10.6033 22.2454 10.4821C22.1521 10.2255 22.2103 9.91774 22.1133 9.67962" stroke="#FEFEFE" stroke-width="0.4" stroke-linecap="round"/>
<path d="M19.4641 20.1498C19.3241 19.8062 19.6339 19.332 19.7571 19.0495C19.9283 18.6568 20.1378 18.3318 20.2846 17.9272C20.4455 17.4837 20.5853 16.9889 20.8118 16.5783C20.946 16.3348 20.9892 16.0497 21.1632 15.834C21.3541 15.5973 21.5191 15.3349 21.7134 15.0995C21.8042 14.9896 21.906 14.8869 21.9994 14.7788C22.0872 14.6771 22.1524 14.5167 22.2483 14.4336C22.4083 14.295 22.5248 14.118 22.716 14.0276C22.8488 13.9647 22.9725 13.6969 23.0684 13.5778C23.2126 13.3984 23.3865 13.2441 23.55 13.0867C24.1162 12.5412 24.7432 11.9768 25.5038 11.6669" stroke="#FEFEFE" stroke-width="0.4" stroke-linecap="round"/>
<path d="M19.4344 20.315C19.0972 20.4524 18.76 20.5897 18.4228 20.7271C18.0669 20.8721 17.7687 21.0831 17.4236 21.2362C16.9884 21.4294 16.5565 21.9571 16.223 22.2868C15.9946 22.5126 15.7667 22.7182 15.5398 22.9337C15.3816 23.084 15.2465 23.2996 15.0753 23.4207C14.9388 23.5173 14.7583 23.7231 14.6713 23.8632C14.5578 24.0456 14.3836 24.1531 14.2725 24.3319C14.0169 24.7429 13.5211 25.0168 13.3222 25.459C13.2463 25.6277 13.0094 25.8056 12.8998 25.9628C12.7765 26.1399 12.5825 26.4241 12.5465 26.6427C12.4978 26.9378 12.2627 27.2354 12.2455 27.5309" stroke="#FEFEFE" stroke-width="0.4" stroke-linecap="round"/>
<path d="M7.83723 23.7638C7.77949 23.4996 7.97 23.1827 8.00593 22.9295C8.05038 22.6164 8.15987 22.3036 8.26452 22.0104C8.35277 21.7632 8.44295 21.5202 8.52521 21.2691C8.54792 21.1997 8.63743 21.0447 8.67698 20.9776C8.74393 20.864 8.80641 20.7676 8.85631 20.6408C8.94509 20.4153 9.14625 20.2617 9.25065 20.035C9.3436 19.8332 9.52488 19.6427 9.64695 19.4539C9.74621 19.3004 9.94118 19.1765 10.0821 19.0612C10.2239 18.9451 10.3196 18.8737 10.4912 18.8037" stroke="#FEFEFE" stroke-width="0.4" stroke-linecap="round"/>
<path d="M12.2161 17.5399C12.1996 17.3312 12.3133 17.0042 12.3615 16.7945C12.4116 16.5764 12.4732 16.3649 12.526 16.149C12.6218 15.7567 12.715 15.4209 12.911 15.0622C13.0921 14.7306 13.3662 14.4801 13.6005 14.1915C13.7412 14.0181 14.0512 13.7308 14.1089 13.5137C14.1611 13.3174 14.3451 13.1902 14.4216 13.0063C14.5132 12.7864 14.7325 12.5232 14.8929 12.3437C15.1992 12.0007 15.4762 11.4652 15.9034 11.2912" stroke="#FEFEFE" stroke-width="0.4" stroke-linecap="round"/>
<path d="M12.0141 17.52C12.08 17.418 12.0561 16.9817 12.0537 16.8404C12.0508 16.6687 12.0316 16.478 12.0368 16.3142C12.0448 16.0665 12.0793 15.7503 12.1585 15.5104C12.2692 15.1749 12.377 14.8294 12.4596 14.4832C12.5294 14.1907 12.7428 13.9253 12.7913 13.6307C12.8859 13.057 13.2282 12.5052 13.5282 12.0263C13.6549 11.8239 13.8138 11.6184 13.9831 11.4496C14.0528 11.3801 14.0487 11.2811 14.1285 11.2089C14.1866 11.1565 14.2841 11.1051 14.2884 11.0304" stroke="#FEFEFE" stroke-width="0.4" stroke-linecap="round"/>
<path d="M12.2644 17.7752C11.3984 18.2677 10.3327 18.4656 9.46184 18.9708C9.05997 19.204 8.7764 19.5996 8.42407 19.8898C8.12867 20.1331 7.80722 20.4266 7.59476 20.7494C7.45113 20.9676 7.36765 21.1778 7.27255 21.4194C7.2095 21.5795 7.09831 21.6792 7.11296 21.8643" stroke="#FEFEFE" stroke-width="0.4" stroke-linecap="round"/>
<path d="M27.0473 12.1097C26.9244 12.4218 26.7911 12.6746 26.6301 12.9715C26.4943 13.2218 26.4137 13.5426 26.2527 13.7717C26.039 14.0759 25.815 14.391 25.6399 14.7245C25.3376 15.3004 24.9141 15.8059 24.6562 16.4069C24.4441 16.901 24.2285 17.4317 24.1592 17.976C24.1179 18.3011 24.1211 18.6403 24.0712 18.9618C23.9955 19.4491 24.1353 19.9818 24.0834 20.4794C24.0546 20.7565 24.071 21.0419 24.1254 21.3129" stroke="#FEFEFE" stroke-width="0.4" stroke-linecap="round"/>
<path d="M30.8163 12.1564C29.5593 12.8012 28.9321 14.3692 28.4358 15.6299C28.2235 16.1692 28.1179 16.7535 27.9162 17.2961C27.8178 17.561 27.8406 18.0153 27.6301 18.2009" stroke="#FEFEFE" stroke-width="0.4" stroke-linecap="round"/>
<path d="M30.9358 11.8526C30.7682 11.4411 30.3894 11.1672 30.2038 10.7728C30.1213 10.5976 29.9526 10.5148 29.8734 10.3205C29.8363 10.2294 29.6703 10.0094 29.5904 10.104" stroke="#FEFEFE" stroke-width="0.4" stroke-linecap="round"/>
<path d="M25.3186 11.6915C25.248 11.4565 25.2323 11.2408 25.1346 11.0009C25.0526 10.7996 25.0167 10.5921 24.9346 10.3905C24.8444 10.1691 24.8098 9.96467 24.7188 9.74127" stroke="#FEFEFE" stroke-width="0.4" stroke-linecap="round"/>
<path d="M19.2071 11.2724C19.2239 10.9842 19.5508 10.6529 19.6621 10.3838C19.7149 10.256 19.7854 10.1395 19.8375 10.0175C19.9028 9.86447 19.9682 9.75695 19.9785 9.58008" stroke="#FEFEFE" stroke-width="0.4" stroke-linecap="round"/>
<path d="M16.014 11.1376C15.9287 10.8958 15.9756 10.6536 15.8789 10.4162C15.8143 10.2577 15.7497 10.0991 15.6851 9.94058C15.5861 9.69749 15.5351 9.44249 15.4398 9.20864" stroke="#FEFEFE" stroke-width="0.4" stroke-linecap="round"/>
<path d="M14.2971 10.5619C14.2557 10.3563 14.417 10.0017 14.4579 9.78773C14.4924 9.60703 14.5107 9.52766 14.4347 9.34119" stroke="#FEFEFE" stroke-width="0.4" stroke-linecap="round"/>
<path d="M12.2232 10.7968C12.0628 11.0548 11.7022 11.2309 11.4809 11.435C11.1453 11.7446 10.8064 12.1511 10.5399 12.5239C10.3606 12.7749 10.1713 13.0498 10.0914 13.3567C9.99873 13.7129 9.75947 14.0245 9.70525 14.386C9.66345 14.6646 9.61473 14.9305 9.60411 15.2128C9.5957 15.4364 9.47908 15.6744 9.49883 15.8996C9.50823 16.0069 9.46805 16.076 9.45527 16.1824C9.43888 16.3187 9.52213 16.4285 9.51454 16.5587C9.50912 16.6517 9.51098 16.8911 9.44423 16.9201C9.15057 17.048 8.84079 17.055 8.54828 17.1742C8.29623 17.2769 8.0428 17.3768 7.79194 17.4824C7.40132 17.6467 7.0483 17.9298 6.73518 18.2148C6.50591 18.4235 6.23648 18.5956 6.04787 18.8584C5.82757 19.1653 5.60731 19.4741 5.3678 19.7578C5.2812 19.8604 5.18344 19.9784 5.11537 20.0979C5.0252 20.2562 5.03215 20.4505 4.87576 20.556" stroke="#FEFEFE" stroke-width="0.4" stroke-linecap="round"/>
<path d="M9.67741 10.3918C8.99214 10.671 8.54188 10.9387 8.05249 11.4975C7.87775 11.697 7.71535 11.9892 7.5915 12.2276C7.48295 12.4364 7.41752 12.7252 7.29076 12.9108C7.16884 13.0893 7.15421 13.3187 7.08874 13.5261C6.92512 14.0446 6.8567 14.5809 6.82173 15.1292C6.80372 15.4114 6.8698 15.7504 6.612 15.8555C6.50086 15.9008 6.28573 15.8894 6.15513 15.903C5.97183 15.922 5.79462 16.0221 5.62608 16.0908C5.12407 16.2953 4.83938 16.7564 4.45843 17.121C4.02113 17.5396 4.07294 18.2898 3.63423 18.6769" stroke="#FEFEFE" stroke-width="0.4" stroke-linecap="round"/>
<path d="M5.60235 10.0001C5.30138 10.3245 4.92213 10.5961 4.6835 10.9845C4.54537 11.2093 4.35986 11.401 4.19098 11.6011C3.92457 11.9166 3.7979 12.2177 3.64648 12.6024C3.5185 12.9275 3.33361 13.259 3.29133 13.6067C3.26975 13.7841 3.33453 14.1406 3.14115 14.2193C2.94746 14.2982 2.74112 14.3268 2.5419 14.408C2.28055 14.5145 2.06278 14.8227 1.88125 15.0376C1.63446 15.3299 1.3642 15.6007 1.12599 15.8968C1.0079 16.0436 0.949865 16.2806 0.799214 16.3935" stroke="#FEFEFE" stroke-width="0.4" stroke-linecap="round"/>
<path d="M3.58111 9.71448C3.15325 9.88879 2.6805 10.0578 2.39765 10.4462C2.15033 10.7858 1.88809 11.1283 1.72562 11.5241C1.52131 12.0218 1.55091 12.6023 1.3528 13.1056C1.24366 13.3828 0.475652 13.5217 0.206667 13.6403C-0.20661 13.8225 -0.509453 14.3826 -0.786089 14.7102" stroke="#FEFEFE" stroke-width="0.4" stroke-linecap="round"/>
<path d="M1.9422 9.32825C1.14875 9.6515 -0.0120019 9.80928 -0.596073 10.501C-0.702438 10.627 -0.801215 10.7077 -0.890619 10.8459C-0.98457 10.9912 -1.04031 11.1494 -1.12879 11.3003C-1.20907 11.4372 -1.13251 11.7233 -1.27912 11.7467C-1.3754 11.762 -1.4287 11.6998 -1.53109 11.7415C-1.61849 11.7771 -1.70589 11.8127 -1.79329 11.8483C-2.03953 11.9486 -2.16056 12.0119 -2.32942 12.2208C-2.46435 12.3877 -2.60921 12.5472 -2.73181 12.7267C-2.79724 12.8225 -2.91118 12.878 -2.99273 12.9593C-3.07837 13.0447 -3.09371 13.1682 -3.18173 13.2458" stroke="#FEFEFE" stroke-width="0.4" stroke-linecap="round"/>
<path d="M-7.81396 7.979C-7.70481 7.94868 -7.29025 8.09723 -7.19505 8.17052C-6.94712 8.36137 -6.6223 8.46486 -6.35189 8.65272C-5.76981 9.0571 -5.08277 9.28418 -4.5033 9.68349C-3.90574 10.0953 -3.13622 10.2887 -2.55828 10.7489C-2.31061 10.9461 -2.00679 11.0671 -1.74681 11.2471C-1.47536 11.4351 -1.17969 11.6289 -0.884982 11.7679C-0.743186 11.8348 -0.629821 11.9732 -0.49439 12.034C-0.362511 12.0932 -0.216102 12.1287 -0.0777396 12.1908C0.137694 12.2875 0.362328 12.43 0.584234 12.488C0.879679 12.5653 1.21272 12.6981 1.51617 12.7985C1.8163 12.8978 2.15148 13.018 2.42571 13.1766C3.0095 13.5144 3.56896 13.8713 4.19625 14.1529C4.55893 14.3158 4.88981 14.5205 5.24598 14.6804C5.6285 14.8521 6.03719 14.9971 6.43766 15.1161C6.80516 15.2253 7.13625 15.4254 7.48604 15.5825C7.88775 15.7628 8.28313 15.8995 8.66894 16.1265C9.42288 16.5703 10.2199 16.9239 10.9712 17.3761C11.3101 17.5801 11.7008 17.7349 12.0743 17.8325C12.2659 17.8826 12.4598 17.9215 12.6443 17.9977C12.8355 18.0767 13.065 18.0395 13.268 18.1072C13.7039 18.2526 14.1791 18.2516 14.6121 18.4192C14.9521 18.5508 15.3219 18.6856 15.666 18.7909C15.7776 18.8251 16.0213 19.0726 16.2015 19.1889C16.4522 19.3509 16.7867 19.5676 17.0771 19.6209C17.458 19.691 17.805 19.8175 18.1771 19.9615C18.5229 20.0954 18.9354 20.3615 19.2964 20.3928C19.6441 20.423 20.0601 20.6239 20.3769 20.7722C20.6399 20.8953 20.9099 20.9226 21.1776 21.0129C21.5464 21.1373 22.0015 21.2164 22.3824 21.2861C22.8389 21.3697 23.2839 21.5386 23.7435 21.6036C23.9439 21.6319 24.1136 21.7826 24.3199 21.7846" stroke="#FEFEFE" stroke-width="0.4" stroke-linecap="round"/>
<path d="M-4.12109 8.08301C-4.00264 8.07011 -3.8694 8.1517 -3.75657 8.18406C-3.47955 8.26351 -3.21406 8.32451 -2.94406 8.43227C-2.46995 8.62149 -1.94306 8.61034 -1.46828 8.80771C-0.841496 9.06826 -0.191607 9.11839 0.453384 9.28186C1.49975 9.54706 2.63311 9.84783 3.7025 9.86838C3.98827 9.87387 4.26598 9.90904 4.54905 9.95483C4.8148 9.99783 5.06777 9.95944 5.33269 9.98065C5.97263 10.0319 6.60984 10.0349 7.24706 9.9679C8.07224 9.88118 8.88647 9.9346 9.7119 9.9065C10.243 9.88842 10.8318 9.85923 11.3583 9.97209C11.6643 10.0377 11.9984 10.0452 12.3132 10.1007C12.6441 10.159 13.0028 10.2657 13.3269 10.3594C13.9003 10.5251 14.4579 10.6232 15.0446 10.7225C16.5779 10.982 18.086 11.5292 19.6501 11.6222C20.2745 11.6593 20.8962 11.6565 21.5211 11.698C22.1802 11.7417 22.803 11.6787 23.4543 11.6591C23.9184 11.6451 24.3796 11.6025 24.8417 11.6084C25.058 11.6111 25.2886 11.5686 25.5027 11.5424C25.7268 11.515 25.9456 11.5639 26.1694 11.5481C27.6183 11.446 29.0364 11.6898 30.4807 11.8991C30.7913 11.9441 31.1063 11.9252 31.4173 11.9612C31.7565 12.0004 32.2176 11.9928 32.552 11.9395C32.8748 11.888 33.4068 11.8353 33.7082 11.9706" stroke="#FEFEFE" stroke-width="0.4" stroke-linecap="round"/>
<path d="M6.89503 23.0696C6.48872 23.0245 6.17814 22.1948 5.8098 21.9844C5.56987 21.8473 5.1685 21.2912 5.02602 21.0348C4.93015 20.8622 4.49635 20.4284 4.31006 20.2887C3.9159 19.9931 3.61011 19.6339 3.27758 19.3014C2.25637 18.2802 0.750182 17.2913 0.112305 16.0156" stroke="#FEFEFE" stroke-width="0.4" stroke-linecap="round"/>
<path d="M18.4256 11.9459C17.1254 13.1161 15.782 13.973 14.8459 15.5332C14.5488 16.0283 14.2985 16.6365 14.2128 17.2365C14.1697 17.5381 13.838 17.6377 13.8134 17.9449C13.7915 18.2179 13.6777 18.4349 13.6777 18.7287" stroke="#FEFEFE" stroke-width="0.4" stroke-linecap="round"/>
<path d="M21.4101 21.3061C20.7298 21.3817 20.4059 22.1603 19.8124 22.4215C19.3383 22.6301 18.6156 23.3756 18.2901 23.8232C18.1051 24.0775 17.4761 24.7579 17.4761 25.0366C17.4761 25.4239 16.9302 25.7925 16.7979 26.1897" stroke="#FEFEFE" stroke-width="0.4" stroke-linecap="round"/>
<path d="M7.70894 24.4262C6.54641 24.4262 5.44365 24.2776 4.39293 24.803C3.89335 25.0528 3.54683 25.5576 3.09668 25.7827" stroke="#FEFEFE" stroke-width="0.4" stroke-linecap="round"/>
<path d="M6.08116 23.0696C4.6771 22.9526 3.41307 22.2608 1.93616 22.5421C1.07654 22.7058 -0.170022 23.4987 -0.565918 24.2905" stroke="#FEFEFE" stroke-width="0.4" stroke-linecap="round"/>
<path d="M3.91068 20.7635C2.36512 20.7635 0.896347 20.6692 -0.565918 21.0348" stroke="#FEFEFE" stroke-width="0.4" stroke-linecap="round"/>
<path d="M2.28287 18.7287C1.60061 18.7287 0.890243 18.6503 0.248047 18.8643" stroke="#FEFEFE" stroke-width="0.4" stroke-linecap="round"/>
<path d="M27.5143 18.186C27.4569 19.2185 26.9717 20.1667 26.9717 21.2383C26.9717 22.3913 26.9717 23.5444 26.9717 24.6975" stroke="#FEFEFE" stroke-width="0.4" stroke-linecap="round"/>
<path d="M29.4138 18.3217C29.3602 18.8035 28.7673 19.4473 28.5998 19.9496C28.3443 20.7162 28.1929 21.5927 28.1929 22.3989C28.1929 23.7077 28.1929 25.0165 28.1929 26.3253" stroke="#FEFEFE" stroke-width="0.4" stroke-linecap="round"/>
<path d="M21.8169 15.473C22.6057 15.5096 23.7028 15.9184 24.319 16.4225C24.9675 16.9532 26.0599 17.1456 26.8361 17.4475C27.5518 17.7258 28.3463 17.7218 29.0744 17.9901C29.591 18.1804 30.0964 18.4574 30.6344 18.4574" stroke="#FEFEFE" stroke-width="0.4" stroke-linecap="round"/>
</g>
</svg>
