<svg width="20" height="68" viewBox="0 0 20 68" fill="none" xmlns="http://www.w3.org/2000/svg">
<path d="M9.72079 2C8.72876 2.89283 6.51308 4.01297 5.67885 5.07892C4.98019 5.97166 4.39398 6.80936 3.77996 7.76451C3.13316 8.77064 2.93735 11.33 4.05123 12.132C4.43201 12.4061 4.78693 12.8351 5.24482 12.9797C5.71504 13.1282 6.1208 13.2333 6.54692 13.4748C6.76256 13.597 7.0301 13.543 7.23866 13.6646C7.51092 13.8235 7.71868 14.0015 8.03891 14.0783C8.33651 14.1498 8.5423 14.4201 8.83916 14.4513C9.55177 14.5263 10.5661 14.9809 11.1857 15.333C12.1168 15.862 13.284 16.0824 14.1832 16.6486C14.6655 16.9523 15.1125 17.3232 15.6074 17.5981C16.0797 17.8605 16.8716 18.6342 17.1129 19.0901C17.2132 19.2794 17.4704 19.619 17.4995 19.8225C17.554 20.204 17.7256 20.3171 17.8454 20.6499C18.0029 21.0876 17.8725 21.7703 17.8725 22.2368C17.8725 23.7179 16.7722 25.5075 15.7973 26.5907C15.5098 26.9101 15.2629 27.3028 14.9292 27.5808C14.4147 28.0096 13.8762 28.3425 13.3558 28.7609C12.8386 29.1767 12.1645 29.345 11.6739 29.7374C11.3601 29.9885 10.8819 30.3384 10.6974 30.6869C10.4849 31.0882 10.0133 30.9098 9.72079 31.2023C9.50364 31.4195 9.60187 31.6756 8.50007 32.6672C8.07932 33.0459 7.63915 33.5642 7.13015 33.8336C7.03526 33.8839 6.92958 33.8396 6.83176 33.8675C6.71487 33.9009 6.81301 34.0647 6.69612 34.0981C6.39393 34.1845 6.41696 34.4197 6.15358 34.5661C5.93823 34.6857 4.84139 35.5184 4.81079 35.6918C4.77112 35.9166 4.37732 36.1289 4.24112 36.3022C4.03575 36.5636 3.68133 36.767 3.44087 37.0075C3.23945 37.2089 3.38718 37.375 3.05431 37.5229C2.88449 37.5984 2.69788 38.1006 2.61349 38.2554C2.39958 38.6475 2.17309 39.1672 2.12521 39.5981C2.05495 40.2305 1.98412 40.837 2.00313 41.4835C2.02354 42.1774 2.60283 42.6412 2.83051 43.2332C3.22954 44.2707 4.14019 44.8246 5.05493 45.3627C5.52711 45.6404 5.95762 46.2367 6.51979 46.407C7.03799 46.5641 7.98896 47.2011 8.25593 47.6549C8.42345 47.9397 9.16397 48.559 9.44274 48.7332C9.77974 48.9438 9.95963 49.2239 10.2362 49.486C10.5068 49.7423 10.9197 49.8968 11.2196 50.1506C11.5368 50.419 11.9883 50.8372 12.2029 51.195C12.6145 51.8809 13.6471 52.3076 14.2103 52.904C14.4138 53.1195 14.661 53.3182 14.8817 53.5143C15.1896 53.788 15.3951 54.2574 15.7023 54.4909M15.7023 54.4909C16.1414 54.8246 15.658 55.2435 15.7023 54.4909ZM15.7023 54.4909C15.7575 53.553 16.4076 54.903 16.4076 55.2505C16.4076 56.2432 16.5297 57.1698 16.5297 58.1802C16.5297 58.7411 16.6452 59.458 16.4347 59.9842C16.2874 60.3525 16.2152 61.2578 15.8922 61.5033C15.387 61.8872 15.356 62.5389 14.7529 62.941C14.6328 63.0211 14.6447 63.2151 14.5698 63.3276C14.4919 63.4443 14.2611 63.4734 14.1493 63.5853C13.9904 63.7441 13.6423 63.8947 13.6 64.1346C13.5569 64.3788 13.1645 64.2855 13.1185 64.4466C13.0165 64.8034 12.7006 64.8184 12.5284 65.1112C12.4396 65.2622 12.2348 65.4228 12.0673 65.4706C11.7541 65.5601 11.7322 65.725 11.4569 65.8707C11.2913 65.9584 11.029 66.1276 10.9144 66.2709C10.7954 66.4195 10.5464 66.2794 10.399 66.4268C10.332 66.4938 10.304 65.0723 10.304 64.7517C10.304 64.1391 10.304 63.5265 10.304 62.9139C10.304 42.6093 10.304 22.3046 10.304 2" stroke="#D9D9D9" stroke-width="3" stroke-linecap="round"/>
</svg>
